<svg xmlns="http://www.w3.org/2000/svg" width="21.508" height="17.506" viewBox="0 0 21.508 17.506">
  <g id="Grupo_877" data-name="Grupo 877" transform="translate(19902.75 5166.797)">
    <path id="Trazado_1252" data-name="Trazado 1252" d="M164.985,100.11a.667.667,0,0,0,.667.667h18.674a.667.667,0,0,0,.667-.667V86.772H172.321v-2h-7.336Z" transform="translate(-20066.984 -5250.818)" fill="none" stroke="#253846" stroke-linejoin="round" stroke-width="1.5"/>
    <g id="Grupo_875" data-name="Grupo 875" transform="translate(-20356.242 -5533.417)">
      <path id="Trazado_296" data-name="Trazado 296" d="M464.776,381.314l-1.181-3.752a.15.15,0,0,0-.107-.1l-4.132-1.072a.139.139,0,0,1-.007-.271l8.292-2.51a.15.15,0,0,1,.2.179l-2.764,7.529A.161.161,0,0,1,464.776,381.314Z" transform="translate(0 0)" fill="none" stroke="#253846" stroke-linecap="round" stroke-linejoin="round" stroke-width="1.5"/>
      <line id="Línea_59" data-name="Línea 59" x1="4.3" y2="4.5" transform="translate(463.742 373.417)" fill="none" stroke="#253846" stroke-linecap="round" stroke-linejoin="round" stroke-width="1.5"/>
    </g>
  </g>
</svg>
