<svg xmlns="http://www.w3.org/2000/svg" width="21.508" height="17.506" viewBox="0 0 21.508 17.506">
  <g id="Grupo_860" data-name="Grupo 860" transform="translate(21066.75 -16772.203)">
    <path id="Trazado_1268" data-name="Trazado 1268" d="M164.985,100.11a.667.667,0,0,0,.667.667h18.674a.667.667,0,0,0,.667-.667V86.772H172.321v-2h-7.336Z" transform="translate(-21230.984 16688.182)" fill="none" stroke="#253846" stroke-linejoin="round" stroke-width="1.5"/>
    <path id="Trazado_1269" data-name="Trazado 1269" d="M-20963.434,16664.637v1.535s-.215-.012-3.184,0a4.916,4.916,0,0,0-2.887.869,2.974,2.974,0,0,0-1.105,1.537,2.776,2.776,0,0,0,0,1.336,3.375,3.375,0,0,0,1.313,1.814,2.644,2.644,0,0,1,0-1.814,2.912,2.912,0,0,1,2.117-1.449c.848-.043,3.746,0,3.746,0v1.35l3.879-2.578Z" transform="translate(-90.699 114.021)" fill="#253846" stroke="#253846" stroke-width="1.5"/>
  </g>
</svg>
