<svg xmlns="http://www.w3.org/2000/svg" width="11.902" height="11.902" viewBox="0 0 11.902 11.902"><g transform="translate(-712 -442)"><rect width="11.902" height="11.902" transform="translate(712 442)" fill="none"/><path d="M11.828,10.786,9.373,8.332a5.093,5.093,0,0,0,1.041-3.124A5.175,5.175,0,0,0,5.207,0,5.175,5.175,0,0,0,0,5.207a5.175,5.175,0,0,0,5.207,5.207A5.093,5.093,0,0,0,8.332,9.373l2.455,2.455ZM1.488,5.207A3.683,3.683,0,0,1,5.207,1.488,3.683,3.683,0,0,1,8.927,5.207,3.683,3.683,0,0,1,5.207,8.927,3.683,3.683,0,0,1,1.488,5.207Z" transform="translate(712 442)" fill="#253846"/></g></svg>