<svg xmlns="http://www.w3.org/2000/svg" width="19.473" height="19.41" viewBox="0 0 19.473 19.41">
  <g id="Grupo_868" data-name="Grupo 868" transform="translate(-482.064 -371.702)">
    <path id="Trazado_302" data-name="Trazado 302" d="M495.975,388.584s-1.682-.846-2.485-1.237a.747.747,0,0,1-.411-.674v-.19a1.429,1.429,0,0,1,.5-1.106,2,2,0,0,0,.724-1.551v-1.872c0-1.983-2.5-1.983-2.5-1.983s-2.587,0-2.587,1.983v1.872a2,2,0,0,0,.723,1.551,1.429,1.429,0,0,1,.5,1.106v.222a.744.744,0,0,1-.4.669c-.777.388-2.408,1.21-2.408,1.21a.607.607,0,0,0-.324.542v.633a.591.591,0,0,0,.578.6h7.84a.591.591,0,0,0,.578-.6v-.633A.607.607,0,0,0,495.975,388.584Z" fill="none" stroke="#253846" stroke-miterlimit="10" stroke-width="1.5"/>
    <path id="Trazado_303" data-name="Trazado 303" d="M489,379.828a.747.747,0,0,1-.412-.674v-.19a1.43,1.43,0,0,1,.5-1.106,2,2,0,0,0,.723-1.551v-1.872c0-1.983-2.5-1.983-2.5-1.983s-2.588,0-2.588,1.983v1.872a2,2,0,0,0,.724,1.551,1.429,1.429,0,0,1,.5,1.106v.222a.743.743,0,0,1-.4.669c-.777.388-2.407,1.21-2.407,1.21a.608.608,0,0,0-.324.542v.633a.591.591,0,0,0,.578.6H487.8" fill="none" stroke="#253846" stroke-miterlimit="10" stroke-width="1.5"/>
    <path id="Trazado_304" data-name="Trazado 304" d="M495.8,382.843h4.409a.591.591,0,0,0,.578-.6v-.633a.608.608,0,0,0-.324-.542s-1.682-.846-2.485-1.237a.746.746,0,0,1-.411-.674v-.19a1.426,1.426,0,0,1,.5-1.106,2,2,0,0,0,.723-1.551v-1.872c0-1.983-2.5-1.983-2.5-1.983s-2.587,0-2.587,1.983v1.872a2,2,0,0,0,.723,1.551,1.426,1.426,0,0,1,.5,1.106v.222a.743.743,0,0,1-.4.669" fill="none" stroke="#253846" stroke-miterlimit="10" stroke-width="1.5"/>
  </g>
</svg>
