<svg xmlns="http://www.w3.org/2000/svg" width="18" height="18" viewBox="0 0 18 18">
  <g id="Grupo_869" data-name="Grupo 869" transform="translate(20471 5247)">
    <path id="Trazado_886" data-name="Trazado 886" d="M253.25,110.323a9,9,0,1,0,9,9A9,9,0,0,0,253.25,110.323Z" transform="translate(-20715.25 -5357.323)" fill="#253846"/>
    <g id="Grupo_867" data-name="Grupo 867" transform="translate(-20748.672 -5353.065)">
      <path id="Trazado_887" data-name="Trazado 887" d="M289.255,114.585v-1.979a2.545,2.545,0,0,0-5.064,0v1.979h-1.519v5.48h8.1v-5.48Zm-2.195,3.5a.339.339,0,0,1-.675,0v-1.523a.339.339,0,0,1,.675,0Zm1.519-3.5h-3.713v-1.979a1.867,1.867,0,0,1,3.713,0Z" fill="#e4e4e4"/>
    </g>
  </g>
</svg>
