<svg xmlns="http://www.w3.org/2000/svg" width="18" height="18" viewBox="0 0 18 18">
  <g id="Grupo_864" data-name="Grupo 864" transform="translate(20420 5191)">
    <path id="Trazado_886" data-name="Trazado 886" d="M253.25,110.323a9,9,0,1,0,9,9A9,9,0,0,0,253.25,110.323Zm-.04,3.605a.857.857,0,0,1,.9.816.548.548,0,0,1,0,.081l-.294,6.186a.563.563,0,0,1-1.125,0l-.293-6.186a.857.857,0,0,1,.815-.9Zm.837,10.13a1.127,1.127,0,1,1,.329-.8h0A1.145,1.145,0,0,1,254.047,124.058Z" transform="translate(-20664.25 -5301.323)" fill="#253846"/>
  </g>
</svg>
