<svg xmlns="http://www.w3.org/2000/svg" width="20.75" height="16.901" viewBox="0 0 20.75 16.901"><g transform="translate(-48.942 -289.384)"><path d="M58.675,299.76a11.874,11.874,0,0,0,1.925-.449c1-.353.963-.867.963-1.155v-.642m-.257-6.737a2.851,2.851,0,0,1,1.861-.642,2.712,2.712,0,0,1,2.887,2.759v1.861a3.657,3.657,0,0,1-1.283,2.759v.61c0,.385-.032,1.058,1.893,1.443a2.887,2.887,0,0,1,2.278,2.118v1.283H65.733" fill="none" stroke="#659eba" stroke-linejoin="round" stroke-width="1.5"/><path d="M61.049,301.653c-2.406-.321-2.374-1.187-2.374-1.636v-.738a4.6,4.6,0,0,0,1.283-3.5v-2.246a3.213,3.213,0,1,0-6.416,0v2.246a4.68,4.68,0,0,0,1.283,3.529v.77c0,.481.032,1.251-2.374,1.572a3.219,3.219,0,0,0-2.759,2.6v1.283H63.808v-1.283S63.808,302.07,61.049,301.653Z" fill="#344e61" stroke="#659eba" stroke-linejoin="round" stroke-width="1.5"/></g></svg>