<svg xmlns="http://www.w3.org/2000/svg" width="19.5" height="19.5" viewBox="0 0 19.5 19.5">
  <g id="Grupo_876" data-name="Grupo 876" transform="translate(-650.25 -741.021)">
    <g id="Grupo_875" data-name="Grupo 875" transform="translate(651 741.771)">
      <path id="Trazado_260" data-name="Trazado 260" d="M303.588,625.757s-2.489-1.253-3.677-1.831a1.1,1.1,0,0,1-.608-1v-.281a2.112,2.112,0,0,1,.739-1.636,2.962,2.962,0,0,0,1.07-2.3v-2.77c0-2.934-3.7-2.934-3.7-2.934s-3.828,0-3.828,2.934v2.77a2.962,2.962,0,0,0,1.07,2.3,2.112,2.112,0,0,1,.739,1.636v.328a1.1,1.1,0,0,1-.6.99c-1.149.575-3.562,1.791-3.562,1.791a.9.9,0,0,0-.479.8v.936a.875.875,0,0,0,.855.893h11.6a.875.875,0,0,0,.855-.893v-.936A.9.9,0,0,0,303.588,625.757Z" transform="translate(-290.757 -610.387)" fill="none" stroke="#fff" stroke-miterlimit="10" stroke-width="1.5"/>
      <path id="Trazado_261" data-name="Trazado 261" d="M305.819,625.761H307.9a.873.873,0,0,0,.854-.892v-.936a.9.9,0,0,0-.478-.8s-2.49-1.252-3.677-1.83a1.105,1.105,0,0,1-.609-1v-.281a2.111,2.111,0,0,1,.74-1.636,2.963,2.963,0,0,0,1.07-2.3v-2.77c0-2.934-3.776-2.934-3.776-2.934h-.943a2.755,2.755,0,0,0-2.089.971" transform="translate(-290.757 -610.387)" fill="none" stroke="#fff" stroke-miterlimit="10" stroke-width="1.5"/>
    </g>
  </g>
</svg>
