<svg xmlns="http://www.w3.org/2000/svg" width="18" height="18" viewBox="0 0 18 18"><g transform="translate(-485.719 -276)"><path d="M502.148,277.79l-9.128,8.947V293.3c0,.656.457.895,1.013.531l1.626-1.063a2.481,2.481,0,0,0,1.012-1.854v-4.772l6.367-6.242C504.221,278.738,503.821,277.79,502.148,277.79Z" fill="#253846"/><path d="M499.6,276.708a1.156,1.156,0,0,0-.242-.358,1.232,1.232,0,0,0-1.721,0l-1.469,1.44h-8.623c-1.673,0-2.075.948-.891,2.109l3.682,3.609-4.26,4.175a1.175,1.175,0,0,0,0,1.687,1.233,1.233,0,0,0,1.721,0l.86-.843,10.7-10.49A1.168,1.168,0,0,0,499.6,276.708Z" fill="#253846"/></g></svg>