<svg xmlns="http://www.w3.org/2000/svg" width="18" height="18" viewBox="0 0 18 18">
  <g id="Grupo_870" data-name="Grupo 870" transform="translate(20432 5243)">
    <g id="Grupo_868" data-name="Grupo 868" transform="translate(-8 -49)">
      <path id="Trazado_886" data-name="Trazado 886" d="M253.25,110.323a9,9,0,1,0,9,9A9,9,0,0,0,253.25,110.323Z" transform="translate(-20668.25 -5304.323)" fill="#253846"/>
    </g>
    <g id="Grupo_865" data-name="Grupo 865" transform="translate(-47 -49.5)">
      <path id="Trazado_289" data-name="Trazado 289" d="M467.776,354.682l-5.282,4.582a.805.805,0,0,0,0,1.251h0a1.134,1.134,0,0,0,1.442,0l5.266-4.568a1.636,1.636,0,0,0,0-2.543h0a2.3,2.3,0,0,0-2.932,0l-5.059,4.39a2.426,2.426,0,0,0,0,3.774h0a3.418,3.418,0,0,0,4.35,0L469.67,358" transform="translate(-20840.809 -5542.377)" fill="none" stroke="#e4e4e4" stroke-linecap="round" stroke-linejoin="round" stroke-width="0.75"/>
    </g>
  </g>
</svg>
