<svg xmlns="http://www.w3.org/2000/svg" xmlns:xlink="http://www.w3.org/1999/xlink" width="341" height="301" viewBox="0 0 341 301">
  <defs>
    <linearGradient id="linear-gradient" x1="0.502" y1="1.014" x2="0.502" y2="0.014" gradientUnits="objectBoundingBox">
      <stop offset="0" stop-color="gray" stop-opacity="0.251"/>
      <stop offset="0.54" stop-color="gray" stop-opacity="0.122"/>
      <stop offset="1" stop-color="gray" stop-opacity="0.102"/>
    </linearGradient>
    <linearGradient id="linear-gradient-2" x1="1.068" y1="0.668" x2="1.068" y2="-0.332" xlink:href="#linear-gradient"/>
    <linearGradient id="linear-gradient-3" x1="2.842" y1="0.652" x2="2.842" y2="-0.351" xlink:href="#linear-gradient"/>
    <linearGradient id="linear-gradient-4" x1="1.073" y1="0.27" x2="1.073" y2="-0.729" xlink:href="#linear-gradient"/>
    <linearGradient id="linear-gradient-5" x1="0.251" y1="0.451" x2="0.251" y2="-0.549" xlink:href="#linear-gradient"/>
    <linearGradient id="linear-gradient-6" x1="5.173" y1="0.029" x2="5.173" y2="-0.871" xlink:href="#linear-gradient"/>
  </defs>
  <g id="Grupo_839" data-name="Grupo 839" transform="translate(-328 -227)">
    <circle id="Elipse_349" data-name="Elipse 349" cx="112.5" cy="112.5" r="112.5" transform="translate(328 227)" fill="#f6f7f9"/>
    <circle id="Elipse_350" data-name="Elipse 350" cx="76" cy="76" r="76" transform="translate(517 376)" fill="#f6f7f9"/>
    <g id="undraw_agreement_aajr_1_" data-name="undraw_agreement_aajr (1)" transform="translate(401.346 169.763) rotate(24)">
      <g id="Grupo_838" data-name="Grupo 838" transform="translate(49.845 0.013)" opacity="0.5">
        <rect id="Rectángulo_1584" data-name="Rectángulo 1584" width="174.989" height="241.781" transform="translate(0 72.622) rotate(-24.52)" fill="url(#linear-gradient)"/>
      </g>
      <rect id="Rectángulo_1585" data-name="Rectángulo 1585" width="170.537" height="236.438" transform="translate(52.608 73.332) rotate(-24.52)" fill="#fff"/>
      <rect id="Rectángulo_1586" data-name="Rectángulo 1586" width="84.601" height="20.493" transform="translate(89.314 49.723) rotate(-24.52)" fill="url(#linear-gradient-2)"/>
      <path id="Trazado_1238" data-name="Trazado 1238" d="M422.995,59.72a12.112,12.112,0,1,0,15.785,6.108A11.97,11.97,0,0,0,422.995,59.72Zm7.925,17.372a6.989,6.989,0,1,1,3.309-9.188,6.907,6.907,0,0,1-3.308,9.191Z" transform="translate(-303.509 -45.775)" fill="url(#linear-gradient-3)"/>
      <rect id="Rectángulo_1587" data-name="Rectángulo 1587" width="82.819" height="19.592" transform="translate(90.129 49.367) rotate(-24.52)" fill="#e96057"/>
      <path id="Trazado_1239" data-name="Trazado 1239" d="M424.218,62.1a11.578,11.578,0,1,0,15.337,5.729A11.578,11.578,0,0,0,424.218,62.1Zm7.576,16.611a6.678,6.678,0,1,1,3.305-8.85,6.678,6.678,0,0,1-3.305,8.85Z" transform="translate(-304.363 -47.343)" fill="#e96057"/>
      <rect id="Rectángulo_1588" data-name="Rectángulo 1588" width="36.513" height="36.513" transform="translate(75.793 104.846) rotate(-24.52)" fill="url(#linear-gradient-4)"/>
      <rect id="Rectángulo_1589" data-name="Rectángulo 1589" width="36.513" height="36.513" transform="translate(105.935 170.627) rotate(-24.52)" fill="url(#linear-gradient-5)"/>
      <rect id="Rectángulo_1590" data-name="Rectángulo 1590" width="33.84" height="33.84" transform="translate(77.562 105.507) rotate(-24.52)" fill="#69f0ae"/>
      <rect id="Rectángulo_1591" data-name="Rectángulo 1591" width="33.84" height="33.84" transform="translate(107.314 170.728) rotate(-24.52)" fill="#e96057"/>
      <rect id="Rectángulo_1592" data-name="Rectángulo 1592" width="46.384" height="3.237" transform="translate(132.941 91.728) rotate(-24.52)" fill="#e0e0e0"/>
      <rect id="Rectángulo_1593" data-name="Rectángulo 1593" width="76.588" height="3.237" transform="translate(134.958 96.145) rotate(-24.52)" fill="#e0e0e0"/>
      <rect id="Rectángulo_1594" data-name="Rectángulo 1594" width="71.193" height="3.237" transform="translate(136.97 100.562) rotate(-24.52)" fill="#e0e0e0"/>
      <rect id="Rectángulo_1595" data-name="Rectángulo 1595" width="46.384" height="3.237" transform="translate(162.694 156.952) rotate(-24.52)" fill="#e0e0e0"/>
      <rect id="Rectángulo_1596" data-name="Rectángulo 1596" width="76.588" height="3.237" transform="translate(164.71 161.366) rotate(-24.52)" fill="#e0e0e0"/>
      <rect id="Rectángulo_1597" data-name="Rectángulo 1597" width="71.193" height="3.237" transform="translate(166.723 165.786) rotate(-24.52)" fill="#e0e0e0"/>
      <path id="Trazado_1240" data-name="Trazado 1240" d="M195.372,312.994l7.928,2.574,2.609-15.259,3.858,1.055-4.34,18.864-11.957-5.241Z" transform="translate(-103.218 -197.765)" fill="url(#linear-gradient-6)"/>
      <path id="Trazado_1241" data-name="Trazado 1241" d="M198.806,315.592l6.894,2.236,2.267-13.268,3.353.918-3.773,16.4-10.4-4.555Z" transform="translate(-105.642 -200.564)" fill="#fff"/>
      <path id="Trazado_1242" data-name="Trazado 1242" d="M286.486,507.8l6.894,2.236,2.267-13.268,3.353.918-3.773,16.4-10.4-4.555Z" transform="translate(-163.385 -327.146)" fill="#fff"/>
      <rect id="Rectángulo_1598" data-name="Rectángulo 1598" width="108.201" height="36.066" transform="translate(157.009 227.1) rotate(-24.52)" fill="#e0e0e0"/>
      <path id="Trazado_1243" data-name="Trazado 1243" d="M683.91,630.041c-3.783-1.079-7.655-.874-8.86,3.452-.406,1.458-.454,3.722-2.018,4.473-2.3,1.106-5.077-1.106-7.075-2.008a7.33,7.33,0,0,0-9.7,2.994,16.93,16.93,0,0,0-1.932,5.886,12.607,12.607,0,0,1-.553,2.81c-.714,1.594-2.947,1.451-4.411,1.39a9.52,9.52,0,0,1-.977-.072,8.648,8.648,0,0,0,1.639-5.507c-.1-3.233-2.2-6.771-5.866-6.375a6.083,6.083,0,0,0-5.234,6.73,8.249,8.249,0,0,0,4.374,6.146c-1.12.5-2.315.881-3.373,1.393a14.153,14.153,0,0,0-1.437.8c-3.2-1.543-7.4-1.834-10.281-.259-1.393.761-.376,3.025,1.024,2.257,2.192-1.2,4.609-.9,6.9-.137l.191.068a6.163,6.163,0,0,0-.6.925c-1.294,2.513,0,6.487,3.148,6.76,4.439.379,4.647-5.487,2.236-7.822-.1-.1-.2-.195-.314-.287,1-.481,2.076-.843,3.029-1.25a12.6,12.6,0,0,0,2.356-1.311l.171.044c3.391.768,8.683,1.007,9.9-3.1,1.045-3.565,1.144-11.134,6.778-10.434,2.3.283,4.182,2.049,6.368,2.687,1.956.584,4.22.608,5.825-.833,1.325-1.188,1.622-2.943,2.028-4.582a4.606,4.606,0,0,1,1.1-2.462c1.246-1.089,3.305-.447,4.695-.051C684.569,632.8,685.45,630.478,683.91,630.041Zm-44.045,28.882c-.748.741-1.54.154-1.939-.621a2.436,2.436,0,0,1,.341-2.7,4.7,4.7,0,0,1,.324-.389c1.478.956,2.687,2.325,1.287,3.711Zm2.622-18.438a2.757,2.757,0,0,1,4.592.847,6.783,6.783,0,0,1-.772,6.453,5.216,5.216,0,0,1-.563.635,7.193,7.193,0,0,1-2.434-1.39c-1.816-1.639-2.844-4.667-.809-6.556Z" transform="translate(-442.73 -421.696)" fill="#e96057"/>
    </g>
  </g>
</svg>
