<svg xmlns="http://www.w3.org/2000/svg" width="615.859" height="518.772" viewBox="0 0 615.859 518.772">
  <g id="Grupo_862" data-name="Grupo 862" transform="translate(23709.195 -12823)">
    <path id="Trazado_1281" data-name="Trazado 1281" d="M753.161,409.332l6.6-1.141c.633-.111,1.261-.246,1.893-.361a54.152,54.152,0,0,1,34.576-99.825l-8.646,20.574,20.485-17.887a.933.933,0,0,1,.14.047,54.155,54.155,0,0,1,33.088,69.072c-.343.975-.751,1.907-1.142,2.85a64.743,64.743,0,0,0,15.855-10.619c9.159-8.777,14.177-20.888,19.785-35.81,11.11-29.569,21.807-59.566,32.077-89.629a54.13,54.13,0,0,1-25.307-65.553c.55-1.563,1.188-3.069,1.863-4.547.169-.37.339-.738.516-1.1.687-1.417,1.412-2.806,2.207-4.139.13-.218.276-.423.409-.639q1.039-1.686,2.191-3.271c.286-.4.571-.793.867-1.18.871-1.138,1.772-2.246,2.723-3.3.318-.354.655-.684.981-1.029q1.1-1.156,2.251-2.242c.406-.381.808-.765,1.225-1.133.107-.094.207-.2.314-.291l.015.021a54.117,54.117,0,0,1,69.24-1.555l-11.251,26.774,20.252-17.674a53.854,53.854,0,0,1,2,63.78l.057.018c-.221.325-.472.622-.7.942q-.641.9-1.312,1.765c-.576.741-1.173,1.457-1.783,2.163-.461.533-.914,1.071-1.394,1.583-.7.75-1.436,1.46-2.175,2.167-.432.412-.845.845-1.289,1.242q-1.746,1.56-3.613,2.96c-.437.327-.9.615-1.343.929-.874.615-1.752,1.22-2.659,1.781-.563.348-1.141.666-1.716.993-.832.474-1.67.933-2.525,1.362-.606.3-1.217.593-1.834.874-.878.4-1.768.771-2.666,1.125-.6.237-1.2.477-1.814.692-1.009.355-2.032.664-3.062.959-.52.149-1.031.32-1.555.454-1.544.394-3.106.729-4.686.986-.3.048-.6.067-.9.11-1.31.191-2.626.344-3.953.438-.57.04-1.144.046-1.717.068-1.073.042-2.146.063-3.226.04-.63-.013-1.259-.046-1.89-.082q-1.577-.089-3.156-.275c-.623-.072-1.244-.144-1.867-.238-1.128-.171-2.255-.4-3.382-.64-.074-.016-.148-.026-.222-.042q-6.5,19.024-13.245,37.967a54.118,54.118,0,0,1,78.472,6.469l-18.723,20.706,25.35-10.12a53.97,53.97,0,0,1,2.167,41.226,53.12,53.12,0,0,1-6.879,13.309,54.133,54.133,0,0,1-97.814-23.75c-.476,1.272-.937,2.561-1.414,3.832-4.949,13.164-11.106,29.546-23.47,41.391-8.381,8.028-18.693,13.121-28.586,17.428q-9.663,4.206-19.584,7.776a54.274,54.274,0,0,1-24.236,7.724c-10.436,2.9-21,5.319-31.669,7.187l-6.651,1.146c-5.977,1.024-12.105,2.078-18.188,3.293.876.26,1.753.508,2.624.814A54.172,54.172,0,0,1,776.305,481l-41.694,12.8,37.728,5.991a54.18,54.18,0,0,1-90.277,16.022q.574,1.925,1.153,3.843c.766,2.542,1.526,5.069,2.255,7.573,9.928,34.113,5.655,60.947-12.033,75.556l-9.6-11.618c17.215-14.221,11.874-43.524,7.161-59.728-.716-2.458-1.464-4.941-2.217-7.438-6.466-21.481-13.8-45.83-4.3-68.2C678.791,422.066,720.027,415.005,753.161,409.332Z" transform="translate(-24092.432 12678.124)" fill="#f2f2f2"/>
    <g id="ilustracion-grupos" transform="translate(-24812 12597.717)">
      <circle id="Elipse_298" data-name="Elipse 298" cx="64.586" cy="64.586" r="64.586" transform="translate(1188.659 335)" fill="#ff6584"/>
      <circle id="Elipse_299" data-name="Elipse 299" cx="169.122" cy="169.122" r="169.122" transform="translate(1199.979 343.655)" fill="#fbfbfb"/>
      <ellipse id="Elipse_300" data-name="Elipse 300" cx="185.768" cy="9.988" rx="185.768" ry="9.988" transform="translate(1175.343 671.247)" fill="#3f3d56"/>
      <ellipse id="Elipse_301" data-name="Elipse 301" cx="139.16" cy="6.888" rx="139.16" ry="6.888" transform="translate(1184.664 674.691)" opacity="0.1"/>
      <ellipse id="Elipse_304" data-name="Elipse 304" cx="96.923" cy="5.993" rx="96.923" ry="5.993" transform="translate(1102.806 732.07)" fill="#3f3d56"/>
      <g id="Grupo_671" data-name="Grupo 671" transform="translate(1112.227 366.216)">
        <path id="Trazado_1015" data-name="Trazado 1015" d="M1081.78,495.07l.467,19.636h8.883V511.55s11.371,2.805,16.964,3.156,26.749,0,26.749,0l-.935-5.844s-34.129-9.584-36.35-13.792l-2.221-4.208-12.623,1.169Z" transform="translate(-981.018 -141.695)" fill="#191831"/>
        <path id="Trazado_1016" data-name="Trazado 1016" d="M997.78,495.07l.468,19.636h8.883V511.55s11.371,2.805,16.964,3.156,26.749,0,26.749,0l-.935-5.844s-34.129-9.584-36.35-13.792l-2.221-4.208-12.623,1.169Z" transform="translate(-975.562 -141.695)" fill="#191831"/>
        <path id="Trazado_1017" data-name="Trazado 1017" d="M1071.606,283.764s6.9-5.712,8.82,4.166c4.862,25.043,18.417,194.983,18.417,194.983h-21.038L1045.78,335.644Z" transform="translate(-978.68 -128.135)" fill="#191847"/>
        <path id="Trazado_1018" data-name="Trazado 1018" d="M1020.338,308.263,996.7,481.4h19.013s48-163.008,50.492-181.4l2.493-18.389-46.752-1.219Z" transform="translate(-975.492 -128.023)" fill="#2f3676"/>
        <path id="Trazado_1019" data-name="Trazado 1019" d="M1133.156,268.979s9.584-1.169,12.389-2.571,6.779-6.545,6.779-6.545,5.922.156,1.09,4.987c-2.629,2.167-.53,2.324-.53,2.324s9.725,1.105,12.53-.765,3.974,11.22-1.87,13.792S1131.363,277,1131.363,277Z" transform="translate(-984.239 -126.689)" fill="#c69a75"/>
        <path id="Trazado_1020" data-name="Trazado 1020" d="M1044.03,181.438s9.05-10.112,16.563.67,22.825,56.016,36.033,63.146,35.3,17.415,35.3,17.415l-3.507,11.014s-29.687-4.885-48.856-18.027c-17.6-12.067-35.532-35.3-35.532-35.3Z" transform="translate(-978.567 -121.316)" fill="#355263"/>
        <path id="Trazado_1021" data-name="Trazado 1021" d="M980.574,314.92s-6.078,17.766-6.545,21.973,14.337,9.35,15.74,6.857.311-10.441,3.273-11.064,3.584,3.116,6.545,2.338,4.831-2.307,1.091-5.362-10.442-6.483-9.039-17.236,2.649-11.064,2.649-11.064l-12,2.961Z" transform="translate(-974.018 -129.385)" fill="#c69a75"/>
        <path id="Trazado_1022" data-name="Trazado 1022" d="M1043.064,150.085l-4.909,24.662H1055.1l-1.9-9.923s4.322.814,13.624,2.454c11.872,2.094,8.006-40.674,2.19-41.621C1065.143,125.026,1037.466,117.644,1043.064,150.085Z" transform="translate(-978.185 -117.896)" fill="#c69a75"/>
        <path id="Trazado_1023" data-name="Trazado 1023" d="M1040.721,159.366s-8.1-8.4-8.729-20.136,4.081-22.683,15.9-21.735,21.3,4.258,23.868,3.647c0,0,.735,4.889-1.958,5.745s-7.344,4.522-10.282,5.744-5.631,7.455-5.631,7.455-4.9-7.028-9.058-1.222c-3.3,6.966,4.407,10.633,4.407,10.633Z" transform="translate(-977.781 -117.438)" fill="#041623"/>
        <path id="Trazado_1024" data-name="Trazado 1024" d="M1032.365,178.07l.837-1.55,24.228.775s12.391,70.92,17.573,85.235,7.93,22.6,7.93,22.6l-58.556,1Z" transform="translate(-977.29 -121.276)" fill="#dde3e9"/>
        <path id="Trazado_1025" data-name="Trazado 1025" d="M1040.959,172.361s-18.533-1.246-29.13,19.325-36.467,118.126-36.467,118.126h18.39s25.046-73.245,28.886-78.855-14.861,69.816-14.861,69.816l51.719,2.182s.11-77.3-6.324-102.232S1047.8,172.361,1040.959,172.361Z" transform="translate(-974.106 -121.004)" fill="#55849d"/>
        <path id="Trazado_1026" data-name="Trazado 1026" d="M1074.93,141.917l5.844,8.838-6.857,3.824Z" transform="translate(-980.508 -119.028)" fill="#c69a75"/>
      </g>
    </g>
    <path id="Trazado_1212" data-name="Trazado 1212" d="M240.954,387.992H341.926v36.316c0,3-2.729,5.427-6.095,5.427H247.049c-3.366,0-6.095-2.43-6.095-5.427Z" transform="translate(-23774.971 12682.544)" opacity="0.1"/>
    <path id="Trazado_1213" data-name="Trazado 1213" d="M333.73,521.351" transform="translate(-23867.852 12547.013)" fill="none" stroke="#3f3d56" stroke-miterlimit="10" stroke-width="1"/>
    <path id="Trazado_1214" data-name="Trazado 1214" d="M378.546,395.942v36.747H303.454V395.942L341,412.1Z" transform="translate(-23824.213 12676.096)" opacity="0.1"/>
    <path id="Trazado_1215" data-name="Trazado 1215" d="M384.639,547.695l-48.109-20.7a2.162,2.162,0,0,0-1.887.093,1.7,1.7,0,0,0-.915,1.472v35.623c0,3,2.729,5.427,6.095,5.427h89.63c3.366,0,6.095-2.43,6.095-5.427V529.165a2.079,2.079,0,0,0-1.116-1.8,2.638,2.638,0,0,0-2.3-.113Z" transform="translate(-23867.852 12542.579)" fill="#3f3d56"/>
    <path id="Trazado_1237" data-name="Trazado 1237" d="M372.624,338.851c-5.741,0-10.394,4.144-10.394,9.255s4.654,9.255,10.394,9.255,10.394-4.144,10.394-9.255C383,343,378.357,338.866,372.624,338.851Zm-2.134,14.19-5.327-4.743,1.494-1.33,3.838,3.417,8.1-7.213,1.494,1.33-9.6,8.539Z" transform="translate(-23647.307 12733.042)" fill="#57b894"/>
    <path id="Trazado_1244" data-name="Trazado 1244" d="M43.782,128.4s-10.6,3.481-16.775,2.142S16.752,126.706,11.45,126.8s-4.961-4.464,0-4.464,17.9,1.25,19.468-1.249-4-9.374-.868-11.249S32.2,116,37.814,115.757s11.314,4.225,11.314,4.225L47.15,128.4Z" transform="matrix(0.966, -0.259, 0.259, 0.966, -23326.504, 12972.185)" fill="#e5b189"/>
    <path id="Trazado_1042" data-name="Trazado 1042" d="M93.681.051,48.137,10.357,3.476,5.442.011,19.657,61.8,32.983l40.087-7.948Z" transform="matrix(0.927, -0.375, 0.375, 0.927, -23255.746, 13067.053)" fill="#355263"/>
    <path id="Trazado_1043" data-name="Trazado 1043" d="M720.072,169.75a68.219,68.219,0,0,1-8.017,2.416l-1.887.221s.6,5.895,3.171,6.825,9.211-1.784,9.211-2.017S720.072,169.75,720.072,169.75Z" transform="translate(-23885.465 12849.262)" fill="#355263"/>
    <path id="Trazado_1044" data-name="Trazado 1044" d="M788.659,495.05l-.453,19.543H779.6v-3.141s-11.018,2.792-16.438,3.141-25.918,0-25.918,0l.906-5.816s33.07-9.539,35.221-13.727l2.152-4.188,12.231,1.163Z" transform="translate(-23976.105 12826.991)" fill="#191831"/>
    <path id="Trazado_1045" data-name="Trazado 1045" d="M729.018,495.05l-.453,19.543h-8.607v-3.141s-11.018,2.792-16.438,3.141-25.918,0-25.918,0l.906-5.816s33.07-9.539,35.221-13.727l2.152-4.188,12.231,1.163Z" transform="translate(-23862.43 12826.991)" fill="#191831"/>
    <path id="Trazado_1046" data-name="Trazado 1046" d="M728.269,283.756s-6.688-5.685-8.547,4.146c-4.711,24.926-11.73,194.067-11.73,194.067h20.386l24.916-146.577Z" transform="translate(-23914.24 12841.468)" fill="#030d14"/>
    <path id="Trazado_1047" data-name="Trazado 1047" d="M723.373,308.132l6.954,172.322H711.9s-30.555-162.243-32.971-180.546l-2.416-18.3,45.3-1.214Z" transform="translate(-23862.756 12841.588)" fill="#0a2c44"/>
    <path id="Trazado_1048" data-name="Trazado 1048" d="M730.89,149.964l4.757,24.546H719.225l1.845-9.876s-4.188.811-13.2,2.443c-11.5,2.084-7.757-40.483-2.122-41.426C709.5,125.024,736.314,117.677,730.89,149.964Z" transform="translate(-23889.684 12852.399)" fill="#e5b189"/>
    <path id="Trazado_1050" data-name="Trazado 1050" d="M735.586,177.8l-4.335-5.052L711.3,177.03s-12.006,70.587-17.027,84.834-7.684,22.495-7.684,22.495l56.739,1Z" transform="translate(-23884.881 12849.054)" fill="#659eba"/>
    <path id="Trazado_1051" data-name="Trazado 1051" d="M741.791,141.917l-5.663,8.8,6.645,3.806Z" transform="translate(-23929.211 12851.191)" fill="#e5b189"/>
    <path id="Trazado_1052" data-name="Trazado 1052" d="M711.226,176.381s-2.115-6.718-3.247-8.425l-1.132-1.706s-6.8,4.624-10.042,5.066-.906,9.592-.906,9.592S706.243,181.626,711.226,176.381Z" transform="translate(-23860.477 12849.504)" fill="#0a2c44"/>
    <ellipse id="Elipse_322" data-name="Elipse 322" cx="3.435" cy="3.529" rx="3.435" ry="3.529" transform="translate(-23178.734 12971.006)" fill="#191847"/>
    <g id="Grupo_676" data-name="Grupo 676" transform="translate(-23178.67 13021.429)">
      <path id="Trazado_1054" data-name="Trazado 1054" d="M678.371,200.59c6.235-24.817,5.207-28.229,11.835-28.229a27.07,27.07,0,0,1,12.173,2.766l5.578,55.555c-3.721-5.584,14.4,69.488,14.4,69.488l-50.115,2.172S672.136,225.408,678.371,200.59Z" transform="translate(-672.242 -172.347)" fill="#0a2c44"/>
    </g>
    <path id="Trazado_1274" data-name="Trazado 1274" d="M2.48,0,63.517.542a2.584,2.584,0,0,1,2.525,2.577l.332,38.025a2.476,2.476,0,0,1-2.481,2.532L2.856,43.133A2.584,2.584,0,0,1,.331,40.556L0,2.531A2.476,2.476,0,0,1,2.48,0Z" transform="translate(-23130.205 13181.066) rotate(-159.446)" fill="#ccc"/>
    <path id="Trazado_1055" data-name="Trazado 1055" d="M714.665,314.933s-7.554,17-10.027,20.364-16.318-3.048-15.645-5.81,6.734-7.762,5.066-10.238-4.6-.2-6.164-2.787-1.864-4.972,2.8-4.622,11.666,2.456,17.84-6.277,5.5-9.812,5.5-9.812l6.474,10.35Z" transform="translate(-23862.316 12840.523)" fill="#e5b189"/>
    <path id="Trazado_1056" data-name="Trazado 1056" d="M711.085,247.4l-30.778,59.1-14.383-6.2,22.58-58.011-8.2-16.441L657.03,233.3l11.507-55.308,7.3-3.352S700.186,172.475,711.085,247.4Z" transform="translate(-23825.859 12848.923)" fill="#0a2c44"/>
    <path id="Unión_33" data-name="Unión 33" d="M20.461,4.4c-3.853,2.992-4.61,8.064-4.136,13.06L9.176,8.954S1.324,17.318.718,29a36.416,36.416,0,0,0,.2,6.281,3.586,3.586,0,0,0,.79,5.45,3.61,3.61,0,0,0-.2,1.177,3.537,3.537,0,0,0,1.981,3.2,3.644,3.644,0,0,0-.057.641,3.482,3.482,0,0,0,3.435,3.528,3.351,3.351,0,0,0,.986-.148A4.451,4.451,0,0,0,12.195,52.8a4.343,4.343,0,0,0,3.084-1.289,3.378,3.378,0,0,0,5.17-.5,3.4,3.4,0,0,0,6.281-.733A3.4,3.4,0,0,0,29.409,51.6a3.443,3.443,0,0,0,3.233-2.332q.1.006.2.006a3.41,3.41,0,0,0,2.87-1.588,3.356,3.356,0,0,0,1.888.58,3.53,3.53,0,0,0,0-7.058,3.378,3.378,0,0,0-.4.024,12.889,12.889,0,0,1-1.922-.925,3.477,3.477,0,0,0-2.727-2.574,3.475,3.475,0,0,0-3.427-3.29,3.37,3.37,0,0,0-2.242.855c-1.529-.965-2.945-3.209-3.868-4.927.747-4.472,2.851-15.77,5.148-16.577,2.869-1.008,12.868,2.848,13.413,3.161s2.391-2.463,0-4.169S37.223,12.03,38.2,8.954s3.323-3.463,1.812-5.867C39.175,1.748,36.179,0,32.034,0,28.736,0,24.71,1.106,20.461,4.4Zm-7.3,24.956c-2.5-5.423,1.521-8.837,3.394-10.068a51.767,51.767,0,0,0,3.175,11.168,5.06,5.06,0,0,1-2.986,1.187C15.576,31.648,14.337,31.05,13.158,29.36Z" transform="translate(-23147.74 13021.013) rotate(180)" fill="#030d14" stroke="rgba(0,0,0,0)" stroke-width="1"/>
    <path id="Trazado_1275" data-name="Trazado 1275" d="M93.275,630.212c0,29.054,19.544,52.564,43.7,52.564" transform="translate(-23448.928 12583.035)" fill="#46455b"/>
    <path id="Trazado_1276" data-name="Trazado 1276" d="M175.975,682.168c0-29.38,21.81-53.154,48.764-53.154" transform="translate(-23487.93 12583.644)" fill="#e96057"/>
    <path id="Trazado_1277" data-name="Trazado 1277" d="M123.239,635.557c0,27.6,12.463,49.93,27.865,49.93" transform="translate(-23463.059 12580.324)" fill="#e96057"/>
    <path id="Trazado_1278" data-name="Trazado 1278" d="M175.975,666.969c0-37.541,25.209-67.919,56.363-67.919" transform="translate(-23487.93 12598.842)" fill="#46455b"/>
    <path id="Trazado_1279" data-name="Trazado 1279" d="M158.577,734.42s6.2-.178,8.065-1.418,9.533-2.721,10-.732,9.313,9.893,2.317,9.945S162.7,741.2,160.833,740.14,158.577,734.42,158.577,734.42Z" transform="translate(-23479.725 12531.762)" fill="#a8a8a8"/>
    <path id="Trazado_1280" data-name="Trazado 1280" d="M179.079,744.73c-7,.053-16.257-1.016-18.121-2.075-1.42-.806-1.985-3.7-2.175-5.035l-.207.008s.393,4.661,2.257,5.72,11.124,2.128,18.121,2.075c2.02-.015,2.717-.685,2.679-1.678C181.352,744.344,180.582,744.718,179.079,744.73Z" transform="translate(-23479.725 12528.555)" opacity="0.2"/>
  </g>
</svg>
