<svg xmlns="http://www.w3.org/2000/svg" width="698.094" height="409.16" viewBox="0 0 698.094 409.16"><g transform="translate(-1102.805 -335)"><circle cx="169.122" cy="169.122" r="169.122" transform="translate(1462.654 350.171)" fill="#fff"/><circle cx="64.586" cy="64.586" r="64.586" transform="translate(1188.659 335)" fill="#ff6584"/><circle cx="169.122" cy="169.122" r="169.122" transform="translate(1199.979 343.655)" fill="#fbfbfb"/><ellipse cx="185.768" cy="9.988" rx="185.768" ry="9.988" transform="translate(1175.343 671.247)" fill="#3f3d56"/><ellipse cx="139.16" cy="6.888" rx="139.16" ry="6.888" transform="translate(1184.664 674.691)" opacity="0.1"/><ellipse cx="139.16" cy="7.577" rx="139.16" ry="7.577" transform="translate(1455.113 716.931)" opacity="0.1"/><ellipse cx="96.923" cy="5.993" rx="96.923" ry="5.993" transform="translate(1102.806 732.07)" fill="#3f3d56"/><rect width="233.043" height="161.798" transform="translate(1204.639 519.437)" fill="#3f3d56"/><rect width="30.628" height="30.628" transform="translate(1223.283 535.417)" fill="#f2f2f2"/><rect width="30.628" height="30.628" transform="translate(1223.283 585.354)" fill="#e96057"/><rect width="30.628" height="30.628" transform="translate(1223.283 635.292)" fill="#f2f2f2"/><rect width="145.818" height="2.663" transform="translate(1268.56 545.071)" fill="#f2f2f2"/><rect width="45.277" height="2.663" transform="translate(1268.56 553.727)" fill="#f2f2f2"/><rect width="145.818" height="2.663" transform="translate(1268.56 595.009)" fill="#f2f2f2"/><rect width="45.277" height="2.663" transform="translate(1268.56 603.665)" fill="#f2f2f2"/><rect width="145.818" height="2.663" transform="translate(1268.56 644.947)" fill="#f2f2f2"/><rect width="45.277" height="2.663" transform="translate(1268.56 653.602)" fill="#f2f2f2"/><g transform="translate(1112.227 366.216)"><path d="M1081.78,495.07l.467,19.636h8.883V511.55s11.371,2.805,16.964,3.156,26.749,0,26.749,0l-.935-5.844s-34.129-9.584-36.35-13.792l-2.221-4.208-12.623,1.169Z" transform="translate(-981.018 -141.695)" fill="#191831"/><path d="M997.78,495.07l.468,19.636h8.883V511.55s11.371,2.805,16.964,3.156,26.749,0,26.749,0l-.935-5.844s-34.129-9.584-36.35-13.792l-2.221-4.208-12.623,1.169Z" transform="translate(-975.562 -141.695)" fill="#191831"/><path d="M1071.606,283.764s6.9-5.712,8.82,4.166c4.862,25.043,18.417,194.983,18.417,194.983h-21.038L1045.78,335.644Z" transform="translate(-978.68 -128.135)" fill="#191847"/><path d="M1020.338,308.263,996.7,481.4h19.013s48-163.008,50.492-181.4l2.493-18.389-46.752-1.219Z" transform="translate(-975.492 -128.023)" fill="#2f3676"/><path d="M1133.156,268.979s9.584-1.169,12.389-2.571,6.779-6.545,6.779-6.545,5.922.156,1.09,4.987c-2.629,2.167-.53,2.324-.53,2.324s9.725,1.105,12.53-.765,3.974,11.22-1.87,13.792S1131.363,277,1131.363,277Z" transform="translate(-984.239 -126.689)" fill="#c69a75"/><path d="M1044.03,181.438s9.05-10.112,16.563.67,22.825,56.016,36.033,63.146,35.3,17.415,35.3,17.415l-3.507,11.014s-29.687-4.885-48.856-18.027c-17.6-12.067-35.532-35.3-35.532-35.3Z" transform="translate(-978.567 -121.316)" fill="#355263"/><path d="M980.574,314.92s-6.078,17.766-6.545,21.973,14.337,9.35,15.74,6.857.311-10.441,3.273-11.064,3.584,3.116,6.545,2.338,4.831-2.307,1.091-5.362-10.442-6.483-9.039-17.236,2.649-11.064,2.649-11.064l-12,2.961Z" transform="translate(-974.018 -129.385)" fill="#c69a75"/><path d="M1043.064,150.085l-4.909,24.662H1055.1l-1.9-9.923s4.322.814,13.624,2.454c11.872,2.094,8.006-40.674,2.19-41.621C1065.143,125.026,1037.466,117.644,1043.064,150.085Z" transform="translate(-978.185 -117.896)" fill="#c69a75"/><path d="M1040.721,159.366s-8.1-8.4-8.729-20.136,4.081-22.683,15.9-21.735,21.3,4.258,23.868,3.647c0,0,.735,4.889-1.958,5.745s-7.344,4.522-10.282,5.744-5.631,7.455-5.631,7.455-4.9-7.028-9.058-1.222c-3.3,6.966,4.407,10.633,4.407,10.633Z" transform="translate(-977.781 -117.438)" fill="#041623"/><path d="M1032.365,178.07l.837-1.55,24.228.775s12.391,70.92,17.573,85.235,7.93,22.6,7.93,22.6l-58.556,1Z" transform="translate(-977.29 -121.276)" fill="#dde3e9"/><path d="M1040.959,172.361s-18.533-1.246-29.13,19.325-36.467,118.126-36.467,118.126h18.39s25.046-73.245,28.886-78.855-14.861,69.816-14.861,69.816l51.719,2.182s.11-77.3-6.324-102.232S1047.8,172.361,1040.959,172.361Z" transform="translate(-974.106 -121.004)" fill="#55849d"/><path d="M1074.93,141.917l5.844,8.838-6.857,3.824Z" transform="translate(-980.508 -119.028)" fill="#c69a75"/></g><g transform="translate(1383.429 346.001)"><g transform="translate(0)"><path d="M484.008,540.079s-12.335,1.12-10.2,3.445c.313.339,7.678,1.647,7.678,1.647s-16.7,8.053-13.841,10.095,13.3,6.846,18.05,3.765,10.677-11.371,12.924-12.38a7.216,7.216,0,0,0,3.244-2.96l-3.758-8.068A44.323,44.323,0,0,1,484.008,540.079Z" transform="translate(-467.319 -393.586)" fill="#e5ad8f"/><path d="M555.587,435.049s-14.922-2.938-19.8,11.289-6.733,44.594-19.813,58.638-19.2,15.646-19.2,15.646l7.791,11.033s43.514-22.819,51.651-46.909S570.38,441.243,555.587,435.049Z" transform="translate(-471.875 -377.992)" fill="#b6bbbf"/><path d="M540.65,533.391l-15.021,183.65v3.842l13.686,3.645,15.679-86.242,30.44-104.894Z" transform="translate(-476.337 -393.241)" fill="#e5ad8f"/><path d="M526.093,683.618l20.269,3.17L576.2,550.467s-30.088-32.454-47.337-4.4S526.093,683.618,526.093,683.618Z" transform="translate(-475.529 -393.434)" fill="#191847"/><path d="M530.406,533.391c12.044,52.132,20.294,81.853,23.088,89.164s11.3,40.469,35.649,96.148c0,0-.534,4.98,6.511,5.261s8.436-5.261,8.436-5.261c-18.39-58.04-21.089-91.2-21.564-96.148s-4.212-34.672-2.088-89.164Z" transform="translate(-477.076 -393.241)" fill="#d4a181"/><path d="M535.942,561.908s1.954,76.564,34.908,124.748l25.783-3.381s-10.761-73.881-10.664-119.783S535.942,561.908,535.942,561.908Z" transform="translate(-477.932 -394.676)" fill="#2f3676"/><path d="M488.724,579.077s-13.1,3.434-15.552,6.116,7.343,2.017,7.343,2.017-8.228,6.6-12.365,9.206,8.05,6.066,18.021,1.137,13.178-17.279,13.178-17.279l-2.928-5.643Z" transform="translate(-467.319 -399.619)" fill="#e5ad8f"/><g transform="translate(43.345 4.9)"><path d="M550.481,406.712l5.6,21.192-15.872,2.219-.239-20.486s-2.3,1.95-10.786,2.923c-8.531.98-6.73-22.643-2.988-32.97,1.007-2.779,2.154-4.6,3.277-4.709C533.658,373.222,562.127,366.341,550.481,406.712Z" transform="translate(-519.288 -373.394)" fill="#e5ad8f"/><path d="M523.862,392.013c-.275,1.342,1.39,3.391-5.268,8.363l6.345,2.323Z" transform="translate(-518.594 -376.274)" fill="#e5ad8f"/></g><path d="M517.341,377.138c-.525-4.339,20.989-15.349,33.088-5.676,21.692,17.116,14.621,48.165,7.666,47.745-12.868-.776-15.17-1.762-15.17-1.762s7.991-11.868,5.369-20.5-5-4.348-6.392-2.3-9.1-3.5-7.271-9.318S518.614,387.64,517.341,377.138Z" transform="translate(-475.054 -367.598)" fill="#191847"/><path d="M560.053,432.274l-15.6,2.107A12.73,12.73,0,0,0,533.5,445.62l-10.561,97.048s19.535,6.085,64.43,3.571c16.978-.669,15.8-2.152,15.8-2.152s-14.339-36.064-16.1-62.961S570.728,431.755,560.053,432.274Z" transform="translate(-475.922 -377.6)" fill="#dde3e9"/><path d="M522.942,555.624a131.337,131.337,0,0,0,16.618,2.866c7.7.68,16.5,1.314,16.5,1.314l-.948-43.773-28.629,20.282Z" transform="translate(-475.922 -390.556)" fill="#c7cdd1"/><g transform="translate(16.017 323.68)"><path d="M535.493,766.057a3.426,3.426,0,0,1-2.858,1.536H490.059a3.427,3.427,0,0,1-3.3-2.492l-.434-1.529a1.71,1.71,0,0,1-.039-.173,1.662,1.662,0,0,1,1.358-1.918h0q16.745-2.858,28.114-10.382a3.446,3.446,0,0,1,2.935-.445,33.575,33.575,0,0,0,13.076,1.814,3.43,3.43,0,0,1,3.768,3.191l.515,8.3a3.43,3.43,0,0,1-.562,2.1Z" transform="translate(-486.266 -750.501)" fill="#191847"/></g><g transform="translate(80.141 323.68)"><path d="M611.35,766.057a3.425,3.425,0,0,1-2.857,1.536H565.916a3.425,3.425,0,0,1-3.3-2.492l-.434-1.529a1.5,1.5,0,0,1-.04-.173,1.662,1.662,0,0,1,1.359-1.918h0q16.746-2.858,28.114-10.382a3.446,3.446,0,0,1,2.935-.445,33.576,33.576,0,0,0,13.076,1.814,3.43,3.43,0,0,1,3.768,3.191l.515,8.3a3.424,3.424,0,0,1-.562,2.1Z" transform="translate(-562.123 -750.501)" fill="#191847"/></g><path d="M563.492,442.956s-19.443-3.381-25.36,15.216-7.449,58.046-24.013,76.644-24.453,20.851-24.453,20.851l10.425,14.089s55.792-30.858,65.655-62.345S582.863,450.564,563.492,442.956Z" transform="translate(-470.775 -379.216)" fill="#dde3e9"/></g></g><ellipse cx="185.768" cy="10.986" rx="185.768" ry="10.986" transform="translate(1416.394 722.187)" fill="#3f3d56"/><g transform="translate(1509.308 623.15)"><rect width="213.068" height="104.424" transform="translate(0)" fill="#3f3d56"/><ellipse cx="36.284" cy="36.284" rx="36.284" ry="36.284" transform="translate(20.641 16.646)" fill="#e96057"/><rect width="15.98" height="15.98" transform="translate(131.17 19.975)" fill="#e96057"/><rect width="15.98" height="15.98" transform="translate(151.145 19.975)" fill="#e96057" opacity="0.5"/><rect width="15.98" height="15.98" transform="translate(171.12 19.975)" fill="#e96057" opacity="0.2"/><rect width="15.98" height="15.98" transform="translate(131.17 39.95)" fill="#2f2e41"/><rect width="15.98" height="15.98" transform="translate(151.145 39.95)" fill="#2f2e41" opacity="0.5"/><rect width="15.98" height="15.98" transform="translate(171.12 39.95)" fill="#2f2e41" opacity="0.2"/><rect width="15.98" height="15.98" transform="translate(131.17 59.925)" fill="#ff6584"/><rect width="15.98" height="15.98" transform="translate(151.145 59.925)" fill="#ff6584" opacity="0.5"/><rect width="15.98" height="15.98" transform="translate(169.279 59.925)" fill="#ff6584" opacity="0.2"/><path d="M757.9,558.459v72.568c20.039,0,37.292-16.245,37.292-36.284S777.942,558.459,757.9,558.459Z" transform="translate(-700.978 -541.813)" fill="#3f3d56" opacity="0.5"/></g></g></svg>