<svg xmlns="http://www.w3.org/2000/svg" xmlns:xlink="http://www.w3.org/1999/xlink" width="271.24" height="329.549" viewBox="0 0 271.24 329.549"><defs><linearGradient id="a" x1="0.5" y1="1" x2="0.5" gradientUnits="objectBoundingBox"><stop offset="0" stop-color="gray" stop-opacity="0.251"/><stop offset="0.54" stop-color="gray" stop-opacity="0.122"/><stop offset="1" stop-color="gray" stop-opacity="0.102"/></linearGradient><linearGradient id="e" x1="0.518" y1="1.092" x2="0.518" y2="-0.251" xlink:href="#a"/><linearGradient id="f" x1="0.5" y1="1" x2="0.5" gradientUnits="objectBoundingBox"><stop offset="0" stop-color="#b3b3b3" stop-opacity="0.251"/><stop offset="0.54" stop-color="#b3b3b3" stop-opacity="0.102"/><stop offset="1" stop-color="#b3b3b3" stop-opacity="0.051"/></linearGradient><linearGradient id="g" x1="0.5" y1="0.999" x2="0.5" gradientUnits="objectBoundingBox"><stop offset="0" stop-opacity="0.122"/><stop offset="0.55" stop-opacity="0.09"/><stop offset="1" stop-opacity="0.02"/></linearGradient><linearGradient id="h" x1="0.5" y1="1" x2="0.5" y2="0" xlink:href="#g"/></defs><g transform="translate(-421.59 -180.03)"><g transform="translate(351.032 180.029)"><g transform="translate(98.648 0)"><g transform="translate(35.785 30.232)" opacity="0.5"><rect width="104.104" height="139.891" fill="url(#a)"/></g><rect width="100.851" height="135.012" transform="translate(37.141 32.131)" fill="#f2f2f2"/><rect width="34.701" height="1.084" transform="translate(45.004 37.823)" fill="#e0e0e0"/><rect width="34.701" height="1.084" transform="translate(45.004 42.703)" fill="#e96057" opacity="0.7"/><rect width="34.701" height="1.084" transform="translate(84.857 37.823)" fill="#e0e0e0"/><rect width="34.701" height="1.084" transform="translate(90.277 68.731)" fill="#e0e0e0"/><rect width="34.701" height="1.084" transform="translate(91.092 71.712)" fill="#e0e0e0"/><rect width="34.701" height="1.084" transform="translate(92.719 74.695)" fill="#e0e0e0"/><rect width="34.701" height="1.084" transform="translate(90.277 116.715)" fill="#e0e0e0"/><rect width="34.701" height="1.084" transform="translate(91.092 119.699)" fill="#e0e0e0"/><rect width="34.701" height="1.084" transform="translate(92.719 122.679)" fill="#e0e0e0"/><g transform="translate(45.276 57.613)" opacity="0.5"><rect width="36.87" height="37.413" fill="url(#a)"/></g><rect width="36.289" height="35.785" transform="translate(45.508 58.428)" fill="#f5f5f5"/><g transform="translate(46.787 60.596)" opacity="0.5"><rect width="33.847" height="23.314" fill="url(#a)"/></g><g transform="translate(45.276 105.6)" opacity="0.5"><rect width="36.87" height="37.413" fill="url(#a)"/></g><g transform="translate(51.069 23.32)" opacity="0.5"><rect width="139.891" height="104.104" transform="translate(0 137.208) rotate(-78.76)" fill="url(#e)"/></g><rect width="135.012" height="100.851" transform="translate(52.979 157.868) rotate(-78.76)" fill="#fff"/><rect width="71.573" height="1.084" transform="translate(85.272 32.987) rotate(11.24)" fill="#e0e0e0"/><rect width="71.573" height="1.084" transform="translate(65.297 133.502) rotate(11.24)" fill="#e0e0e0"/><rect width="55.307" height="1.084" transform="translate(64.079 139.615) rotate(11.24)" fill="#e0e0e0"/><rect width="20.603" height="1.084" transform="translate(62.865 145.733) rotate(11.24)" fill="#e96057" opacity="0.7"/><rect width="35.785" height="1.084" transform="translate(84.054 39.104) rotate(11.24)" fill="#e96057" opacity="0.7"/><rect width="64.523" height="1.084" transform="translate(82.842 45.219) rotate(11.24)" fill="#e0e0e0"/><rect width="15.723" height="1.084" transform="translate(81.625 51.336) rotate(11.24)" fill="#3ad29f" opacity="0.7"/><rect width="71.573" height="1.084" transform="translate(80.411 57.452) rotate(11.24)" fill="#e0e0e0"/><rect width="63.439" height="36.057" transform="translate(86.953 83.63) rotate(11.24)" fill="#fff"/><rect width="71.573" height="1.084" transform="translate(79.196 63.57) rotate(11.24)" fill="#e0e0e0"/><rect width="0.813" height="4.608" transform="translate(28.194 154.128)" fill="#47e6b1"/><rect width="0.813" height="4.608" transform="translate(30.906 156.025) rotate(90)" fill="#47e6b1"/><path d="M739.825,62.373a1,1,0,0,1-.555-1.2.481.481,0,0,0,.021-.111h0a.5.5,0,0,0-.9-.332h0a.471.471,0,0,0-.056.1,1,1,0,0,1-1.2.555.477.477,0,0,0-.111-.021h0a.5.5,0,0,0-.327.9h0a.477.477,0,0,0,.1.056,1,1,0,0,1,.555,1.2.48.48,0,0,0-.021.111h0a.5.5,0,0,0,.905.327h0a.483.483,0,0,0,.056-.1,1,1,0,0,1,1.2-.555.476.476,0,0,0,.111.021h0a.5.5,0,0,0,.332-.9h0A.478.478,0,0,0,739.825,62.373Z" transform="translate(-607.067 -60.523)" fill="#4d8af0"/><path d="M305.4,209.523a1,1,0,0,1-.555-1.2.475.475,0,0,0,.021-.111h0a.5.5,0,0,0-.9-.332h0a.478.478,0,0,0-.056.1,1,1,0,0,1-1.2.555.479.479,0,0,0-.111-.021h0a.5.5,0,0,0-.332.9h0a.476.476,0,0,0,.1.056,1,1,0,0,1,.555,1.2.481.481,0,0,0-.021.111h0a.5.5,0,0,0,.9.332h0a.479.479,0,0,0,.056-.1,1,1,0,0,1,1.2-.555.478.478,0,0,0,.111.021h0a.5.5,0,0,0,.332-.9h0A.48.48,0,0,0,305.4,209.523Z" transform="translate(-273.495 -173.513)" fill="#fdd835"/><path d="M923.181,816.783a1,1,0,0,1-.555-1.2.468.468,0,0,0,.021-.111h0a.5.5,0,0,0-.9-.332h0a.485.485,0,0,0-.056.1,1,1,0,0,1-1.2.555.47.47,0,0,0-.111-.021h0a.5.5,0,0,0-.332.9h0a.475.475,0,0,0,.1.056,1,1,0,0,1,.555,1.2.48.48,0,0,0-.021.111h0a.5.5,0,0,0,.9.332h0a.48.48,0,0,0,.056-.1,1,1,0,0,1,1.2-.555.478.478,0,0,0,.111.021h0a.5.5,0,0,0,.332-.9h0A.474.474,0,0,0,923.181,816.783Z" transform="translate(-747.859 -639.8)" fill="#fdd835"/><ellipse cx="1.627" cy="1.627" rx="1.627" ry="1.627" transform="translate(72.927 15.864)" fill="#f55f44"/><ellipse cx="1.627" cy="1.627" rx="1.627" ry="1.627" transform="translate(189.501 36.196)" fill="#f55f44"/><ellipse cx="1.627" cy="1.627" rx="1.627" ry="1.627" transform="translate(180.285 84.723)" fill="#4d8af0"/><ellipse cx="1.627" cy="1.627" rx="1.627" ry="1.627" transform="translate(0 5.018)" fill="#47e6b1" opacity="0.5"/></g><g transform="translate(70.559 52.214)"><ellipse cx="135.62" cy="9.071" rx="135.62" ry="9.071" transform="translate(0 259.194)" fill="#e4e4e4" opacity="0.36"/><path d="M200.748,545.74h58.146v88.62H196V545.74h4.748" transform="translate(-182.353 -368.878)" fill="#fcfcfc"/><rect width="47.01" height="10.163" transform="translate(21.587 189.569)" fill="#e96057"/><rect width="38.754" height="0.637" transform="translate(25.717 212.28)" fill="#373e46"/><rect width="38.754" height="0.637" transform="translate(25.717 215.774)" fill="#373e46"/><rect width="38.754" height="0.637" transform="translate(25.717 219.267)" fill="#373e46"/><rect width="38.754" height="0.637" transform="translate(25.717 222.76)" fill="#373e46"/><rect width="38.754" height="0.637" transform="translate(25.717 226.253)" fill="#373e46"/><rect width="38.754" height="0.637" transform="translate(25.717 229.75)" fill="#373e46"/><rect width="38.754" height="0.637" transform="translate(25.717 233.244)" fill="#373e46"/><rect width="38.754" height="0.637" transform="translate(25.717 236.737)" fill="#373e46"/><rect width="38.754" height="0.637" transform="translate(25.717 240.23)" fill="#373e46"/><rect width="38.754" height="0.637" transform="translate(25.717 243.723)" fill="#373e46"/><rect width="38.754" height="0.637" transform="translate(25.717 247.22)" fill="#373e46"/><path d="M435.278,545.74h58.146v88.62H430.53V545.74h4.748" transform="translate(-326.356 -368.878)" fill="#fcfcfc"/><rect width="47.01" height="10.163" transform="translate(112.113 189.569)" fill="#e96057"/><rect width="38.754" height="0.637" transform="translate(116.244 212.28)" fill="#373e46"/><rect width="38.754" height="0.637" transform="translate(116.244 215.774)" fill="#373e46"/><rect width="38.754" height="0.637" transform="translate(116.244 219.267)" fill="#373e46"/><rect width="38.754" height="0.637" transform="translate(116.244 222.76)" fill="#373e46"/><rect width="38.754" height="0.637" transform="translate(116.244 226.253)" fill="#373e46"/><rect width="38.754" height="0.637" transform="translate(116.244 229.75)" fill="#373e46"/><rect width="38.754" height="0.637" transform="translate(116.244 233.244)" fill="#373e46"/><rect width="38.754" height="0.637" transform="translate(116.244 236.737)" fill="#373e46"/><rect width="38.754" height="0.637" transform="translate(116.244 240.23)" fill="#373e46"/><rect width="38.754" height="0.637" transform="translate(116.244 243.723)" fill="#373e46"/><rect width="38.754" height="0.637" transform="translate(116.244 247.22)" fill="#373e46"/><path d="M669.808,545.74h58.146v88.62H665.06V545.74h4.748" transform="translate(-470.36 -368.878)" fill="#fcfcfc"/><rect width="47.01" height="10.163" transform="translate(202.644 189.569)" fill="#e96057"/><rect width="38.754" height="0.637" transform="translate(206.77 212.28)" fill="#373e46"/><rect width="38.754" height="0.637" transform="translate(206.77 215.774)" fill="#373e46"/><rect width="38.754" height="0.637" transform="translate(206.77 219.267)" fill="#373e46"/><rect width="38.754" height="0.637" transform="translate(206.77 222.76)" fill="#373e46"/><rect width="38.754" height="0.637" transform="translate(206.77 226.253)" fill="#373e46"/><rect width="38.754" height="0.637" transform="translate(206.77 229.75)" fill="#373e46"/><rect width="38.754" height="0.637" transform="translate(206.77 233.244)" fill="#373e46"/><rect width="38.754" height="0.637" transform="translate(206.77 236.737)" fill="#373e46"/><rect width="38.754" height="0.637" transform="translate(206.77 240.23)" fill="#373e46"/><rect width="38.754" height="0.637" transform="translate(206.77 243.723)" fill="#373e46"/><rect width="38.754" height="0.637" transform="translate(206.77 247.22)" fill="#373e46"/><path d="M368,448.727V387.74L277.47,448.727" transform="translate(-232.376 -271.865)" fill="none" stroke="#373e46" stroke-miterlimit="10" stroke-width="1"/><line x1="90.527" y1="60.987" transform="translate(135.62 115.875)" fill="none" stroke="#373e46" stroke-miterlimit="10" stroke-width="1"/><g transform="translate(84.669 0)" opacity="0.1"><path d="M387.693,87.54H380V231.129H481.9V87.54Z" transform="translate(-380 -87.54)"/></g><path d="M392.7,95.04h90.411v137.8h-97.8V95.04H392.7" transform="translate(-298.597 -92.145)" fill="#fff"/><rect width="73.099" height="15.806" transform="translate(99.071 22.65)" fill="#e96057"/><rect width="60.257" height="0.988" transform="translate(105.494 57.964)" fill="#373e46"/><rect width="60.257" height="0.988" transform="translate(105.494 63.395)" fill="#373e46"/><rect width="60.257" height="0.988" transform="translate(105.494 68.83)" fill="#373e46"/><rect width="60.257" height="0.988" transform="translate(105.494 74.261)" fill="#373e46"/><rect width="60.257" height="0.988" transform="translate(105.494 79.696)" fill="#373e46"/><rect width="60.257" height="0.988" transform="translate(105.494 85.131)" fill="#373e46"/><rect width="60.257" height="0.988" transform="translate(105.494 90.562)" fill="#373e46"/><rect width="60.257" height="0.988" transform="translate(105.494 95.996)" fill="#373e46"/><rect width="60.257" height="0.988" transform="translate(105.494 101.427)" fill="#373e46"/><rect width="60.257" height="0.988" transform="translate(105.494 106.862)" fill="#373e46"/><rect width="60.257" height="0.988" transform="translate(105.494 112.293)" fill="#373e46"/></g><g transform="translate(189.344 102.781)"><path d="M694.858,377.42a47.945,47.945,0,1,0-7.843,73.032l34.66,36.05a2.334,2.334,0,0,0,3.3.065l8.636-8.3a2.334,2.334,0,0,0,.065-3.3l-34.651-36.047a47.95,47.95,0,0,0-4.168-61.5Zm-10.8,57.961a34.294,34.294,0,1,1,.953-48.491A34.294,34.294,0,0,1,684.062,435.381Z" transform="translate(-612.42 -360.883)" fill="url(#f)"/><path d="M678.973,487.6c-3.857,0-3.863,5.995,0,5.995S682.836,487.6,678.973,487.6Z" transform="translate(-656.499 -447.365)" fill="url(#g)"/><path d="M716.182,425.153a28.806,28.806,0,0,0-24.849,12.835c-1.639,2.565,3.014,4.832,4.644,2.279,4.158-6.508,12.06-10.642,20.607-10.427a26.254,26.254,0,0,1,21.422,12.46c1.636,2.7,5.927.246,4.306-2.436C737.066,431.252,726.9,425.408,716.182,425.153Z" transform="translate(-666.824 -404.12)" fill="url(#h)"/><path d="M707.088,371.5a47.945,47.945,0,1,0-7.843,73.029L733.9,480.582a2.334,2.334,0,0,0,3.3.065l8.637-8.3a2.334,2.334,0,0,0,.065-3.3l-34.66-36.05A47.95,47.95,0,0,0,707.088,371.5Zm-10.8,57.937a34.294,34.294,0,1,1,.953-48.491,34.294,34.294,0,0,1-.953,48.491Z" transform="translate(-620.889 -356.784)" fill="#e96057"/><path d="M691.2,481.67c-3.857,0-3.863,5.994,0,5.994S695.066,481.67,691.2,481.67Z" transform="translate(-664.968 -443.259)" fill="#e96057"/><path d="M728.413,419.233a28.806,28.806,0,0,0-24.849,12.835c-1.639,2.565,3.014,4.832,4.644,2.279,4.158-6.508,12.06-10.642,20.607-10.427a26.253,26.253,0,0,1,21.422,12.46c1.636,2.7,5.927.246,4.306-2.436A31.822,31.822,0,0,0,728.413,419.233Z" transform="translate(-675.293 -400.02)" fill="#e96057"/></g></g></g></svg>