<svg xmlns="http://www.w3.org/2000/svg" width="769.316" height="462.739" viewBox="0 0 769.316 462.739"><g transform="translate(-293.348 -567)"><g transform="translate(293.348 566.983)"><path d="M753.161,409.332l6.6-1.141c.633-.111,1.261-.246,1.893-.361a54.152,54.152,0,0,1,34.576-99.825l-8.646,20.574,20.485-17.887a.933.933,0,0,1,.14.047,54.155,54.155,0,0,1,33.088,69.072c-.343.975-.751,1.907-1.142,2.85a64.743,64.743,0,0,0,15.855-10.619c9.159-8.777,14.177-20.888,19.785-35.81,11.11-29.569,21.807-59.566,32.077-89.629a54.13,54.13,0,0,1-25.307-65.553c.55-1.563,1.188-3.069,1.863-4.547.169-.37.339-.738.516-1.1.687-1.417,1.412-2.806,2.207-4.139.13-.218.276-.423.409-.639q1.039-1.686,2.191-3.271c.286-.4.571-.793.867-1.18.871-1.138,1.772-2.246,2.723-3.3.318-.354.655-.684.981-1.029q1.1-1.156,2.251-2.242c.406-.381.808-.765,1.225-1.133.107-.094.207-.2.314-.291l.015.021a54.117,54.117,0,0,1,69.24-1.555l-11.251,26.774,20.252-17.674a53.854,53.854,0,0,1,2,63.78l.057.018c-.221.325-.472.622-.7.942q-.641.9-1.312,1.765c-.576.741-1.173,1.457-1.783,2.163-.461.533-.914,1.071-1.394,1.583-.7.75-1.436,1.46-2.175,2.167-.432.412-.845.845-1.289,1.242q-1.746,1.56-3.613,2.96c-.437.327-.9.615-1.343.929-.874.615-1.752,1.22-2.659,1.781-.563.348-1.141.666-1.716.993-.832.474-1.67.933-2.525,1.362-.606.3-1.217.593-1.834.874-.878.4-1.768.771-2.666,1.125-.6.237-1.2.477-1.814.692-1.009.355-2.032.664-3.062.959-.52.149-1.031.32-1.555.454-1.544.394-3.106.729-4.686.986-.3.048-.6.067-.9.11-1.31.191-2.626.344-3.953.438-.57.04-1.144.046-1.717.068-1.073.042-2.146.063-3.226.04-.63-.013-1.259-.046-1.89-.082q-1.577-.089-3.156-.275c-.623-.072-1.244-.144-1.867-.238-1.128-.171-2.255-.4-3.382-.64-.074-.016-.148-.026-.222-.042q-6.5,19.024-13.245,37.967a54.118,54.118,0,0,1,78.472,6.469l-18.723,20.706,25.35-10.12a53.97,53.97,0,0,1,2.167,41.226,53.12,53.12,0,0,1-6.879,13.309,54.133,54.133,0,0,1-97.814-23.75c-.476,1.272-.937,2.561-1.414,3.832-4.949,13.164-11.106,29.546-23.47,41.391-8.381,8.028-18.693,13.121-28.586,17.428q-9.663,4.206-19.584,7.776a54.274,54.274,0,0,1-24.236,7.724c-10.436,2.9-21,5.319-31.669,7.187l-6.651,1.146c-5.977,1.024-12.105,2.078-18.188,3.293.876.26,1.753.508,2.624.814A54.172,54.172,0,0,1,776.305,481l-41.694,12.8,37.728,5.991a54.18,54.18,0,0,1-90.277,16.022q.574,1.925,1.153,3.843c.766,2.542,1.526,5.069,2.255,7.573,9.928,34.113,5.655,60.947-12.033,75.556l-9.6-11.618c17.215-14.221,11.874-43.524,7.161-59.728-.716-2.458-1.464-4.941-2.217-7.438-6.466-21.481-13.8-45.83-4.3-68.2C678.791,422.066,720.027,415.005,753.161,409.332Z" transform="translate(-229.78 -144.859)" fill="#f2f2f2"/><path d="M662.481,647.156H370.35a36.121,36.121,0,0,1-36.121-36.121V477.2a14.31,14.31,0,0,1,4.465-10.385L493.5,320.073a33.317,33.317,0,0,1,45.841,0L686.93,459.979A37.4,37.4,0,0,1,698.6,487.125v123.91a36.121,36.121,0,0,1-36.121,36.121Z" transform="translate(-151.319 -184.862)" fill="#3f3d56"/><path d="M240.954,387.992H602.29V533.944a21.811,21.811,0,0,1-21.811,21.811H262.765a21.811,21.811,0,0,1-21.811-21.811V387.992Z" transform="translate(-58.044 -93.46)" opacity="0.1"/><path d="M333.73,521.351" transform="translate(-151.199 -235.549)" fill="none" stroke="#3f3d56" stroke-miterlimit="10" stroke-width="1"/><rect width="268.724" height="268.724" rx="26.181" transform="translate(230.354 179.527)" fill="#e96057"/><path d="M572.178,395.942V543.626H303.454V395.942l134.362,64.942Z" transform="translate(-73.1 -95.375)" opacity="0.1"/><path d="M515.915,610.724,343.754,527.513A6.985,6.985,0,0,0,333.73,533.8V676.97a21.811,21.811,0,0,0,21.811,21.811H676.29A21.811,21.811,0,0,0,698.1,676.97V536.255a8.524,8.524,0,0,0-12.233-7.674Z" transform="translate(-151.199 -236.866)" fill="#3f3d56"/><rect width="75.152" height="10.628" transform="translate(253.507 204.198)" fill="#f2f2f2"/><rect width="223.178" height="6.073" transform="translate(247.434 242.912)" fill="#f2f2f2"/><rect width="223.178" height="6.073" transform="translate(247.434 263.408)" fill="#f2f2f2"/><rect width="223.178" height="6.073" transform="translate(247.434 283.904)" fill="#f2f2f2"/><line x2="625.505" transform="translate(46.271 461.915)" fill="none" stroke="#3f3d56" stroke-miterlimit="10" stroke-width="1"/><path d="M93.275,630.212c0,44.757,28.078,80.974,62.778,80.974" transform="translate(-93.275 -261.773)" fill="#46455b"/><path d="M175.975,710.9c0-45.26,31.334-81.884,70.056-81.884" transform="translate(-113.197 -261.484)" fill="#e96057"/><path d="M123.239,635.557c0,42.515,17.9,76.917,40.032,76.917" transform="translate(-100.493 -263.061)" fill="#e96057"/><path d="M175.975,703.68c0-57.832,36.217-104.63,80.974-104.63" transform="translate(-113.197 -254.266)" fill="#46455b"/><path d="M158.577,736.108s8.9-.274,11.586-2.185,13.695-4.192,14.361-1.128,13.379,15.24,3.328,15.321-23.355-1.565-26.033-3.2S158.577,736.108,158.577,736.108Z" transform="translate(-109.006 -286.124)" fill="#a8a8a8"/><path d="M188.031,748.573c-10.051.081-23.355-1.566-26.033-3.2-2.039-1.242-2.852-5.7-3.124-7.757l-.3.012s.564,7.18,3.242,8.812,15.981,3.278,26.033,3.2c2.9-.023,3.9-1.056,3.849-2.585C191.3,747.978,190.19,748.555,188.031,748.573Z" transform="translate(-109.006 -287.647)" opacity="0.2"/><ellipse cx="31.123" cy="31.18" rx="31.123" ry="31.18" transform="translate(210.238 152.578)" fill="#fff"/><path d="M399.426,338.851a37.2,37.2,0,1,0,37.2,37.2A37.2,37.2,0,0,0,399.426,338.851Zm-7.636,57.028-19.063-19.063,5.347-5.347L391.808,385.2,420.8,356.215l5.347,5.347L391.79,395.879Z" transform="translate(-158.064 -191.586)" fill="#57b894"/></g><g transform="translate(-545)"><path d="M47.482,112.178s-11.689-3.735-18.49-2.3S17.688,114,11.844,113.9s-5.468,4.79,0,4.79,19.734-1.342,21.459,1.341-4.406,10.06-.957,12.071,2.367-6.618,8.559-6.356,12.471-4.534,12.471-4.534l-2.18-9.036Z" transform="translate(1287.641 628.896)" fill="#e5b189"/><path d="M811.671,177.136l-49.912,10.64-49.1-5.747L709,197.307l68,14.981,43.943-8.156Z" transform="matrix(0.927, -0.375, 0.375, 0.927, 608.474, 837.175)" fill="#355263"/><path d="M721.085,169.75s-6.757,2.356-8.838,2.593l-2.08.237s.665,6.326,3.5,7.325,10.153-1.915,10.153-2.164S721.085,169.75,721.085,169.75Z" transform="translate(710.142 513.659)" fill="#355263"/><path d="M793.919,495.356l-.5,20.973h-9.488v-3.37s-12.145,3-18.12,3.37-28.57,0-28.57,0l1-6.242s36.453-10.237,38.825-14.731l2.372-4.494,13.482,1.248Z" transform="translate(612.998 513.245)" fill="#191831"/><path d="M734.278,495.356l-.5,20.973H724.29v-3.37s-12.145,3-18.12,3.37-28.57,0-28.57,0l1-6.242s36.453-10.237,38.825-14.731l2.372-4.494,13.483,1.248Z" transform="translate(732.203 513.245)" fill="#191831"/><path d="M730.343,283.876s-7.373-6.1-9.421,4.449c-5.193,26.748-12.93,208.26-12.93,208.26h22.471l27.464-157.3Z" transform="translate(678.202 513.514)" fill="#030d14"/><path d="M728.166,310.161l7.665,184.924H715.524s-33.681-174.108-36.344-193.75l-2.663-19.642,49.935-1.3Z" transform="translate(731.732 513.516)" fill="#0a2c44"/><path d="M734.012,151.827l5.243,26.341h-18.1l2.034-10.6s-4.616.87-14.551,2.622c-12.68,2.236-8.551-43.444-2.339-44.456C710.43,125.062,739.991,117.177,734.012,151.827Z" transform="translate(704.489 513.718)" fill="#e5b189"/><path d="M740.6,178.171l-4.779-5.421-21.992,4.593s-13.234,75.749-18.769,91.038-8.47,24.14-8.47,24.14l62.543,1.073Z" transform="translate(708.374 513.655)" fill="#659eba"/><path d="M742.371,141.917l-6.242,9.44,7.324,4.084Z" transform="translate(664.576 513.695)" fill="#e5b189"/><path d="M712.878,177.122s-2.331-7.21-3.579-9.041l-1.248-1.831s-7.491,4.963-11.069,5.436-1,10.294-1,10.294S707.385,182.751,712.878,177.122Z" transform="translate(736.144 513.664)" fill="#0a2c44"/><ellipse cx="3.787" cy="3.787" rx="3.787" ry="3.787" transform="translate(1416.522 631.892)" fill="#191847"/><g transform="translate(1416.591 686.003)"><path d="M679,202.656c6.873-26.632,5.74-30.294,13.045-30.294a30.543,30.543,0,0,1,13.419,2.968l6.149,59.618c-4.1-5.992,15.872,74.57,15.872,74.57l-55.242,2.331S672.125,229.288,679,202.656Z" transform="translate(-672.242 -172.347)" fill="#0a2c44"/></g><rect width="72.557" height="46.44" rx="2.75" transform="translate(1470.029 857.348) rotate(-159.446)" fill="#ccc"/><path d="M717.51,316.336s-8.326,18.244-11.053,21.853-17.988-3.271-17.246-6.235,7.423-8.329,5.584-10.987-5.069-.214-6.794-2.991-2.054-5.336,3.09-4.961,12.859,2.636,19.665-6.736,6.067-10.529,6.067-10.529l7.137,11.107Z" transform="translate(733.274 513.497)" fill="#e5b189"/><path d="M716.615,252.723,682.689,316.15l-15.854-6.657,24.89-62.254L682.689,229.6l-25.659,7.99,12.684-59.353,8.052-3.6S704.6,172.318,716.615,252.723Z" transform="translate(770.41 513.653)" fill="#0a2c44"/><path d="M22.554,4.727C18.307,7.938,17.473,13.381,18,18.742L10.115,9.609S1.46,18.585.792,31.116a38.053,38.053,0,0,0,.219,6.74,3.786,3.786,0,0,0,.87,5.848A3.793,3.793,0,0,0,3.85,48.4a3.79,3.79,0,0,0,4.811,4.316,4.869,4.869,0,0,0,8.18,2.562,3.787,3.787,0,0,0,5.7-.535,3.788,3.788,0,0,0,6.924-.787,3.788,3.788,0,0,0,6.516-1.088q.111.006.223.007a3.783,3.783,0,0,0,3.163-1.7,3.787,3.787,0,1,0,2.081-6.952,3.824,3.824,0,0,0-.443.026,14.38,14.38,0,0,1-2.118-.993,3.792,3.792,0,0,0-3.005-2.763,3.787,3.787,0,0,0-6.249-2.613c-1.685-1.036-3.247-3.443-4.263-5.287.824-4.8,3.142-16.923,5.675-17.79,3.162-1.082,14.184,3.056,14.786,3.392s2.635-2.643,0-4.474-4.8-.806-3.717-4.107,3.663-3.716,2-6.3C43.183,1.876,39.881,0,35.311,0,31.675,0,27.238,1.187,22.554,4.727ZM14.5,31.508c-2.76-5.82,1.677-9.484,3.741-10.8a54.438,54.438,0,0,0,3.5,11.985,5.663,5.663,0,0,1-3.291,1.273C17.17,33.962,15.8,33.321,14.5,31.508Z" transform="translate(1450.687 685.557) rotate(180)" fill="#030d14" stroke="rgba(0,0,0,0)" stroke-width="1"/></g></g></svg>