<svg xmlns="http://www.w3.org/2000/svg" width="46.994" height="32.539" viewBox="0 0 46.994 32.539">
  <g id="Grupo_857" data-name="Grupo 857" transform="translate(21577.5 -20189.5)">
    <g id="Grupo_533" data-name="Grupo 533" transform="translate(-21593 20171)">
      <path id="Trazado_233" data-name="Trazado 233" d="M2688.163,2278.705a15.038,15.038,0,0,0-14.168,10.99,10.113,10.113,0,0,0-8.922,10.326,10.688,10.688,0,0,0,2.851,7.333,4.861,4.861,0,0,0,1.525.836c3.512,1.024,6.49-.81,7.928-1.948a10.2,10.2,0,0,0,2.691-3.166,10.018,10.018,0,0,0,.749-1.629c.081-.222.2-.57.2-.57l-4-2.569,10.447-2.832.014.106c.488-.833.972-1.613,1.361-2.14,2.076-2.813,4.57-4.973,8.133-5.779a20.354,20.354,0,0,1,2.268-.181,10.052,10.052,0,0,1,2.238,0A14.829,14.829,0,0,0,2688.163,2278.705Z" transform="translate(-2649.073 -2259.705)" fill="#fff" stroke="rgba(0,0,0,0)" stroke-width="1" opacity="0.5"/>
      <path id="Trazado_234" data-name="Trazado 234" d="M2697.742,2284.764a12.9,12.9,0,0,0-4.506.186,14.086,14.086,0,0,0-8.134,5.777,24.048,24.048,0,0,0-1.375,2.073l1.469,10.55-3.768-2.42s-.181.415-.292.624a13.685,13.685,0,0,1-4.906,4.874,11.229,11.229,0,0,1-2.874,1.125l22.069.016c.23,0,.46-.009.687-.021.172.009.347.014.522.014,5.909,0,10.7-5.116,10.7-11.429A11.477,11.477,0,0,0,2697.742,2284.764Zm-3.308,17.524c-1.535,0-2.115,0-3.614,0-.707,0-1.267-.193-1.277-1.027s.558-1.069,1.252-1.072c3.031-.013.581-.01,3.612-.007.751,0,1.337.267,1.334,1.119S2695.119,2302.288,2694.434,2302.288Zm-3.614-4.27c-.707,0-1.267-.19-1.277-1.024s.558-1.069,1.252-1.072q4.025-.02,8.053-.009h1.042c.75,0,1.336.267,1.335,1.12s-.624.985-1.31.985h-4.6m4.6-4.322h-4.6q-2.247,0-4.5,0c-.707,0-1.267-.19-1.277-1.026s.558-1.069,1.252-1.072c2.869-.014,5.662-.012,8.525-.009h.57c.75,0,1.336.267,1.335,1.121S2700.6,2293.7,2699.915,2293.7Z" transform="translate(-2645.339 -2257.029)" fill="#fff" stroke="rgba(0,0,0,0)" stroke-width="1"/>
    </g>
  </g>
</svg>
