<svg xmlns="http://www.w3.org/2000/svg" width="159.485" height="32.54" viewBox="0 0 159.485 32.54">
  <g id="Grupo_856" data-name="Grupo 856" transform="translate(-15.5 -18.5)">
    <g id="Grupo_116" data-name="Grupo 116" transform="translate(71.598 28.344)">
      <g id="Grupo_115" data-name="Grupo 115">
        <g id="Grupo_111" data-name="Grupo 111" transform="translate(50.856)">
          <path id="Trazado_222" data-name="Trazado 222" d="M2742.478,2286.288a4.985,4.985,0,0,0-3.3-1.061H2736.8a2.324,2.324,0,0,0-1.461.307,2.034,2.034,0,0,0-.331,1.414v9.311a3.066,3.066,0,0,0,.143,1.108.886.886,0,0,0,.895.543.9.9,0,0,0,.92-.754c.09-.382.049-3.467.049-3.514a14.061,14.061,0,0,0,4.595-.518,3.555,3.555,0,0,0,2.239-3.676A3.923,3.923,0,0,0,2742.478,2286.288Zm-1.286,5.044a3.292,3.292,0,0,1-2.061.59h-2.075v-4.88h2.052a3.4,3.4,0,0,1,2.075.579,2.125,2.125,0,0,1,.778,1.827A2.222,2.222,0,0,1,2741.192,2291.332Z" transform="translate(-2735.005 -2285.109)" fill="#fff"/>
          <path id="Trazado_223" data-name="Trazado 223" d="M2758.137,2286.288a4.989,4.989,0,0,0-3.3-1.061h-2.381a2.33,2.33,0,0,0-1.462.307,2.045,2.045,0,0,0-.329,1.414v9.311a3.048,3.048,0,0,0,.142,1.108.884.884,0,0,0,.9.543.9.9,0,0,0,.92-.754c.089-.382.048-3.467.048-3.514a14.061,14.061,0,0,0,4.594-.518,3.557,3.557,0,0,0,2.24-3.676A3.927,3.927,0,0,0,2758.137,2286.288Zm-1.286,5.044a3.3,3.3,0,0,1-2.063.59h-2.073v-4.88h2.05a3.4,3.4,0,0,1,2.074.579,2.124,2.124,0,0,1,.778,1.827A2.229,2.229,0,0,1,2756.851,2291.332Z" transform="translate(-2727.946 -2285.109)" fill="#fff"/>
          <path id="Trazado_224" data-name="Trazado 224" d="M2749.545,2289.106q-1.273-2.594-1.486-3.052a1.994,1.994,0,0,0-.425-.648.944.944,0,0,0-.659-.26.934.934,0,0,0-.685.283,2.093,2.093,0,0,0-.377.612q-.777,1.533-1.532,3.066-1.367,2.781-2.312,4.856a14.2,14.2,0,0,0-1.176,3.041.85.85,0,0,0,.317.671,1.083,1.083,0,0,0,.718.271q.544,0,1.133-.966.519-1.18,1.059-2.359h5.706q.07.167.777,1.792.777,1.531,1.415,1.533a1.111,1.111,0,0,0,.741-.271.851.851,0,0,0,.319-.671,14.34,14.34,0,0,0-1.2-3.064Q2751.36,2292.805,2749.545,2289.106Zm-4.526,3.63,1.957-4.173,1.956,4.173Z" transform="translate(-2732.35 -2285.146)" fill="#fff"/>
          <path id="Trazado_225" data-name="Trazado 225" d="M2764.712,2287.113a2.924,2.924,0,0,0,1.038-.141.8.8,0,0,0,.494-.8.743.743,0,0,0-.4-.766,2.661,2.661,0,0,0-1.061-.177h-4.833a2.165,2.165,0,0,0-1.39.307,1.9,1.9,0,0,0-.33,1.344v9.288a1.846,1.846,0,0,0,.33,1.33,2.227,2.227,0,0,0,1.39.294h4.857a2.737,2.737,0,0,0,1.049-.164.727.727,0,0,0,.388-.754.81.81,0,0,0-.519-.825,3.082,3.082,0,0,0-1.013-.118h-4.432V2292.3h3.559a2.993,2.993,0,0,0,.919-.1.656.656,0,0,0,.449-.684c0-.361-.122-.584-.366-.671a3.129,3.129,0,0,0-1-.129h-3.559v-3.606Z" transform="translate(-2724.536 -2285.109)" fill="#fff"/>
          <path id="Trazado_226" data-name="Trazado 226" d="M2773.292,2296.12a3.369,3.369,0,0,0-1.143-.154h-4.409V2286.8a3.2,3.2,0,0,0-.141-1.108.842.842,0,0,0-.872-.543.825.825,0,0,0-.837.435,2.768,2.768,0,0,0-.2,1.143v9.478a1.855,1.855,0,0,0,.33,1.33,2.235,2.235,0,0,0,1.391.294h4.809a3.7,3.7,0,0,0,.778-.071.8.8,0,0,0,.707-.847C2773.7,2296.483,2773.566,2296.221,2773.292,2296.12Z" transform="translate(-2721.173 -2285.146)" fill="#fff"/>
        </g>
        <g id="Grupo_114" data-name="Grupo 114">
          <g id="Grupo_112" data-name="Grupo 112">
            <path id="Trazado_227" data-name="Trazado 227" d="M2709.336,2288.29a6.8,6.8,0,0,0,1.516,1.153.941.941,0,0,0,.656-.271.839.839,0,0,0,.295-.634q0-1.333-2.082-2.443a7.184,7.184,0,0,0-3.28-.949,6.275,6.275,0,0,0-4.569,1.9,6.149,6.149,0,0,0-1.922,4.525,6.044,6.044,0,0,0,1.934,4.557,6.491,6.491,0,0,0,4.648,1.845,7.043,7.043,0,0,0,3.212-.905q2.037-1.064,2.035-2.331a.92.92,0,0,0-.271-.633.814.814,0,0,0-.61-.295q-1.086.77-2.149,1.539a4.218,4.218,0,0,1-2.375.7,4.44,4.44,0,0,1-4.433-4.412,4.332,4.332,0,0,1,1.3-3.224,4.483,4.483,0,0,1,3.27-1.277A4.258,4.258,0,0,1,2709.336,2288.29Z" transform="translate(-2699.95 -2285.146)" fill="#fff"/>
          </g>
          <g id="Grupo_113" data-name="Grupo 113" transform="translate(13.705 0.041)">
            <path id="Trazado_228" data-name="Trazado 228" d="M2715.979,2287.089a2.98,2.98,0,0,0,1.054-.144.8.8,0,0,0,.5-.814.756.756,0,0,0-.406-.777,2.7,2.7,0,0,0-1.079-.18h-4.906a2.21,2.21,0,0,0-1.411.31,1.934,1.934,0,0,0-.337,1.365v9.43a1.875,1.875,0,0,0,.337,1.352,2.264,2.264,0,0,0,1.411.3h4.931a2.763,2.763,0,0,0,1.066-.167.739.739,0,0,0,.394-.766.82.82,0,0,0-.527-.837,3.13,3.13,0,0,0-1.03-.121h-4.5v-3.686h3.614a3.112,3.112,0,0,0,.934-.094.671.671,0,0,0,.454-.695c0-.367-.123-.594-.37-.682a3.167,3.167,0,0,0-1.018-.132h-3.614v-3.662Z" transform="translate(-2709.397 -2285.174)" fill="#fff"/>
          </g>
          <path id="Trazado_229" data-name="Trazado 229" d="M2723.627,2286.211a5.78,5.78,0,0,0-3.533-1.02h-2.065a2.351,2.351,0,0,0-1.471.308,2.058,2.058,0,0,0-.332,1.425v9.369a3.114,3.114,0,0,0,.142,1.115.892.892,0,0,0,.9.545.977.977,0,0,0,.924-.759,5.012,5.012,0,0,0,.213-1.637c0-.27-.019-.621-.058-1.056s-.06-.731-.06-.889h1.85q.711,1.138,1.448,2.276,1.444,2.089,2.134,2.089a.837.837,0,0,0,.665-.309,1.071,1.071,0,0,0,.261-.712,5.158,5.158,0,0,0-1.068-1.946q-.309-.449-1.235-1.636a4.8,4.8,0,0,0,2.064-1.565,4.119,4.119,0,0,0-.782-5.6Zm-1.245,5.041a3.133,3.133,0,0,1-2,.628h-2.087v-4.934h1.92a3.524,3.524,0,0,1,2.147.605,2.527,2.527,0,0,1,.024,3.7Z" transform="translate(-2692.613 -2285.126)" fill="#fff"/>
          <path id="Trazado_230" data-name="Trazado 230" d="M2729.46,2285.187a6.387,6.387,0,1,0,4.522,1.87A6.139,6.139,0,0,0,2729.46,2285.187Zm3.14,9.511a4.282,4.282,0,0,1-3.14,1.3,4.205,4.205,0,0,1-3.118-1.3,4.434,4.434,0,0,1,.012-6.247,4.23,4.23,0,0,1,3.106-1.293,4.409,4.409,0,0,1,3.14,7.54Z" transform="translate(-2689.52 -2285.127)" fill="#fff"/>
        </g>
      </g>
    </g>
    <path id="Trazado_233" data-name="Trazado 233" d="M2688.163,2278.705a15.038,15.038,0,0,0-14.168,10.99,10.113,10.113,0,0,0-8.922,10.326,10.688,10.688,0,0,0,2.851,7.333,4.861,4.861,0,0,0,1.525.836c3.512,1.024,6.49-.81,7.928-1.948a10.2,10.2,0,0,0,2.691-3.166,10.018,10.018,0,0,0,.749-1.629c.081-.222.2-.57.2-.57l-4-2.569,10.447-2.832.014.106c.488-.833.972-1.613,1.361-2.14,2.076-2.813,4.57-4.973,8.133-5.779a20.354,20.354,0,0,1,2.268-.181,10.052,10.052,0,0,1,2.238,0A14.829,14.829,0,0,0,2688.163,2278.705Z" transform="translate(-2649.073 -2259.705)" fill="#fff" stroke="rgba(0,0,0,0)" stroke-width="1" opacity="0.5"/>
    <path id="Trazado_234" data-name="Trazado 234" d="M2697.742,2284.764a12.9,12.9,0,0,0-4.506.186,14.086,14.086,0,0,0-8.134,5.777,24.048,24.048,0,0,0-1.375,2.073l1.469,10.55-3.768-2.42s-.181.415-.292.624a13.685,13.685,0,0,1-4.906,4.874,11.229,11.229,0,0,1-2.874,1.125l22.069.016c.23,0,.46-.009.687-.021.172.009.347.014.522.014,5.909,0,10.7-5.116,10.7-11.429A11.477,11.477,0,0,0,2697.742,2284.764Zm-3.308,17.524c-1.535,0-2.115,0-3.614,0-.707,0-1.267-.193-1.277-1.027s.558-1.069,1.252-1.072c3.031-.013.581-.01,3.612-.007.751,0,1.337.267,1.334,1.119S2695.119,2302.288,2694.434,2302.288Zm-3.614-4.27c-.707,0-1.267-.19-1.277-1.024s.558-1.069,1.252-1.072q4.025-.02,8.053-.009h1.042c.75,0,1.336.267,1.335,1.12s-.624.985-1.31.985h-4.6m4.6-4.322h-4.6q-2.247,0-4.5,0c-.707,0-1.267-.19-1.277-1.026s.558-1.069,1.252-1.072c2.869-.014,5.662-.012,8.525-.009h.57c.75,0,1.336.267,1.335,1.121S2700.6,2293.7,2699.915,2293.7Z" transform="translate(-2645.339 -2257.029)" fill="#fff" stroke="rgba(0,0,0,0)" stroke-width="1"/>
  </g>
</svg>
