<svg xmlns="http://www.w3.org/2000/svg" width="224.391" height="106.157" viewBox="0 0 224.391 106.157">
  <g id="logo_byn" data-name="logo byn" transform="translate(0 0)">
    <g id="Grupo_6" data-name="Grupo 6" transform="translate(0 78.263)">
      <g id="Grupo_5" data-name="Grupo 5" transform="translate(0 0)">
        <g id="Grupo_1" data-name="Grupo 1" transform="translate(110.379)">
          <path id="Trazado_1" data-name="Trazado 1" d="M1744.4,1488.478a10.818,10.818,0,0,0-7.162-2.3h-5.168q-2.458,0-3.172.667t-.716,3.069v20.207a6.685,6.685,0,0,0,.308,2.406,1.921,1.921,0,0,0,1.942,1.177,1.957,1.957,0,0,0,2-1.637c.193-.826.106-7.523.106-7.625,4.707,0,8.1-.373,9.971-1.123q4.86-1.941,4.859-7.98A8.507,8.507,0,0,0,1744.4,1488.478Zm-2.789,10.948a7.149,7.149,0,0,1-4.475,1.281h-4.5v-10.591h4.452a7.379,7.379,0,0,1,4.5,1.255,4.609,4.609,0,0,1,1.688,3.964A4.83,4.83,0,0,1,1741.606,1499.426Z" transform="translate(-1728.177 -1485.921)" fill="#223846"/>
          <path id="Trazado_2" data-name="Trazado 2" d="M2505.551,1488.478a10.816,10.816,0,0,0-7.162-2.3h-5.167q-2.458,0-3.173.667t-.715,3.069v20.207a6.661,6.661,0,0,0,.307,2.406,1.92,1.92,0,0,0,1.943,1.177,1.955,1.955,0,0,0,2-1.637c.193-.826.106-7.523.106-7.625,4.707,0,8.095-.373,9.971-1.123q4.861-1.941,4.86-7.98A8.507,8.507,0,0,0,2505.551,1488.478Zm-2.789,10.948a7.151,7.151,0,0,1-4.475,1.281h-4.5v-10.591h4.45a7.382,7.382,0,0,1,4.5,1.255,4.607,4.607,0,0,1,1.687,3.964A4.835,4.835,0,0,1,2502.761,1499.426Z" transform="translate(-2440.028 -1485.921)" fill="#223846"/>
          <path id="Trazado_3" data-name="Trazado 3" d="M2033.182,1490.826q-2.763-5.628-3.224-6.625a4.325,4.325,0,0,0-.921-1.408,2.056,2.056,0,0,0-1.432-.563,2.02,2.02,0,0,0-1.484.615,4.459,4.459,0,0,0-.818,1.329q-1.687,3.325-3.326,6.651-2.967,6.037-5.015,10.538-2.558,5.63-2.556,6.6a1.84,1.84,0,0,0,.691,1.459,2.337,2.337,0,0,0,1.559.588q1.177,0,2.458-2.1,1.123-2.558,2.3-5.118H2033.8q.153.361,1.687,3.89,1.688,3.325,3.07,3.326a2.4,2.4,0,0,0,1.61-.588,1.847,1.847,0,0,0,.692-1.459q0-.973-2.61-6.651Q2037.122,1498.855,2033.182,1490.826Zm-9.823,7.878,4.246-9.056,4.245,9.056Z" transform="translate(-1995.866 -1482.23)" fill="#223846"/>
          <path id="Trazado_4" data-name="Trazado 4" d="M2871.166,1490.269a6.355,6.355,0,0,0,2.252-.305,1.725,1.725,0,0,0,1.074-1.741,1.617,1.617,0,0,0-.871-1.662,5.775,5.775,0,0,0-2.3-.385h-10.489a4.707,4.707,0,0,0-3.018.667q-.715.664-.715,2.916v20.158q0,2.25.715,2.889a4.86,4.86,0,0,0,3.018.639h10.54a5.916,5.916,0,0,0,2.276-.358,1.578,1.578,0,0,0,.844-1.637,1.755,1.755,0,0,0-1.125-1.79,6.681,6.681,0,0,0-2.2-.257h-9.617v-7.878h7.723a6.569,6.569,0,0,0,2-.206,1.427,1.427,0,0,0,.973-1.483q0-1.176-.794-1.459a6.741,6.741,0,0,0-2.175-.281h-7.723v-7.828Z" transform="translate(-2783.97 -1485.921)" fill="#223846"/>
          <path id="Trazado_5" data-name="Trazado 5" d="M3236.218,1506.047a7.354,7.354,0,0,0-2.48-.333h-9.568v-19.9a6.9,6.9,0,0,0-.308-2.405,1.827,1.827,0,0,0-1.892-1.177,1.79,1.79,0,0,0-1.816.946,6.021,6.021,0,0,0-.434,2.482v20.569q0,2.25.716,2.889a4.861,4.861,0,0,0,3.02.639h10.436a8.1,8.1,0,0,0,1.688-.154,1.748,1.748,0,0,0,1.536-1.841C3237.114,1506.836,3236.815,1506.269,3236.218,1506.047Z" transform="translate(-3123.103 -1482.23)" fill="#223846"/>
        </g>
        <g id="Grupo_4" data-name="Grupo 4">
          <g id="Grupo_2" data-name="Grupo 2">
            <path id="Trazado_6" data-name="Trazado 6" d="M44.544,1489.054q2.9,2.5,3.29,2.5a2.047,2.047,0,0,0,1.422-.587,1.821,1.821,0,0,0,.639-1.376q0-2.9-4.517-5.3a15.592,15.592,0,0,0-7.119-2.061,13.626,13.626,0,0,0-9.916,4.123,13.333,13.333,0,0,0-4.173,9.819,13.119,13.119,0,0,0,4.2,9.892,14.1,14.1,0,0,0,10.088,4,15.283,15.283,0,0,0,6.973-1.965q4.419-2.308,4.418-5.057a1.994,1.994,0,0,0-.59-1.374,1.771,1.771,0,0,0-1.326-.64q-2.355,1.67-4.662,3.34a9.166,9.166,0,0,1-5.156,1.521,9.641,9.641,0,0,1-9.622-9.574,9.4,9.4,0,0,1,2.823-7,9.719,9.719,0,0,1,7.095-2.773A9.248,9.248,0,0,1,44.544,1489.054Z" transform="translate(-24.171 -1482.23)" fill="#223846"/>
          </g>
          <g id="Grupo_3" data-name="Grupo 3" transform="translate(29.748 0.088)">
            <path id="Trazado_7" data-name="Trazado 7" d="M497.693,1487.743a6.473,6.473,0,0,0,2.287-.311,1.747,1.747,0,0,0,1.09-1.767,1.644,1.644,0,0,0-.882-1.687,5.863,5.863,0,0,0-2.339-.391H487.2a4.785,4.785,0,0,0-3.065.676q-.727.677-.728,2.961v20.468q0,2.288.728,2.936a4.937,4.937,0,0,0,3.065.649h10.7a6.019,6.019,0,0,0,2.313-.363,1.6,1.6,0,0,0,.857-1.663,1.782,1.782,0,0,0-1.144-1.817,6.788,6.788,0,0,0-2.234-.261h-9.765v-8h7.843a6.709,6.709,0,0,0,2.027-.207,1.451,1.451,0,0,0,.986-1.507q0-1.2-.8-1.479a6.809,6.809,0,0,0-2.208-.286h-7.843v-7.949Z" transform="translate(-483.407 -1483.587)" fill="#223846"/>
          </g>
          <path id="Trazado_8" data-name="Trazado 8" d="M831.413,1486.643a12.546,12.546,0,0,0-7.671-2.214h-4.479q-2.472,0-3.192.669t-.72,3.089v20.336a6.741,6.741,0,0,0,.308,2.421,1.933,1.933,0,0,0,1.957,1.184,2.121,2.121,0,0,0,2.007-1.646,10.858,10.858,0,0,0,.463-3.554c0-.584-.042-1.347-.127-2.292s-.129-1.586-.129-1.93h4.016q1.544,2.47,3.142,4.942,3.138,4.533,4.634,4.532a1.809,1.809,0,0,0,1.441-.67,2.323,2.323,0,0,0,.567-1.544q0-.977-2.318-4.223-.671-.976-2.678-3.553a10.45,10.45,0,0,0,4.479-3.4,8.944,8.944,0,0,0-1.7-12.151Zm-2.7,10.941a6.805,6.805,0,0,1-4.352,1.364h-4.531v-10.709H824a7.648,7.648,0,0,1,4.658,1.313,5.483,5.483,0,0,1,.054,8.032Z" transform="translate(-764.1 -1484.286)" fill="#223846"/>
          <path id="Trazado_9" data-name="Trazado 9" d="M1162.727,1484.226a13.861,13.861,0,1,0,9.816,4.059A13.32,13.32,0,0,0,1162.727,1484.226Zm6.813,20.642a9.282,9.282,0,0,1-6.813,2.831,9.129,9.129,0,0,1-6.768-2.831,9.624,9.624,0,0,1,.025-13.556,9.191,9.191,0,0,1,6.742-2.805,9.568,9.568,0,0,1,6.813,16.362Z" transform="translate(-1076.043 -1484.097)" fill="#223846"/>
        </g>
      </g>
    </g>
    <path id="Trazado_10" data-name="Trazado 10" d="M1941.211,1084.505c-6.581-.006-1.262-.013-7.841.017-1.5.007-2.737.52-2.716,2.327s1.239,2.231,2.769,2.229c3.254-.006,4.514,0,7.844,0,1.488,0,2.836-.3,2.84-2.138S1942.84,1084.506,1941.211,1084.505Z" transform="translate(-1807.159 -1032.001)" fill="none"/>
    <path id="Trazado_11" data-name="Trazado 11" d="M1953.111,941.483h-2.262c-5.827,0-11.652-.009-17.479.019-1.5.006-2.737.521-2.716,2.327s1.239,2.23,2.769,2.226q4.881-.006,9.758,0h9.984c1.488,0,2.836-.3,2.842-2.139S1954.739,941.485,1953.111,941.483Z" transform="translate(-1807.159 -898.245)" fill="none"/>
    <path id="Trazado_12" data-name="Trazado 12" d="M1953.111,796.67h-1.239c-6.213-.005-12.274-.011-18.5.019-1.5.006-2.737.519-2.716,2.327s1.239,2.23,2.769,2.228q4.881-.009,9.758,0h9.984c1.488,0,2.836-.3,2.842-2.139S1954.739,796.672,1953.111,796.67Z" transform="translate(-1807.159 -762.811)" fill="none"/>
    <path id="Trazado_13" data-name="Trazado 13" d="M1035.769,274.033c-14.364,0-26.533,10.009-30.749,23.851-10.837.92-19.364,10.6-19.364,22.412a23.2,23.2,0,0,0,6.186,15.915,10.6,10.6,0,0,0,3.312,1.815c7.621,2.222,14.085-1.759,17.205-4.231a22.131,22.131,0,0,0,5.84-6.869,21.408,21.408,0,0,0,1.626-3.538c.176-.481.432-1.237.432-1.237l-8.683-5.576,22.673-6.146.031.229c1.058-1.806,2.109-3.5,2.953-4.642,4.5-6.106,9.919-10.8,17.653-12.543a44.338,44.338,0,0,1,4.921-.394,22.411,22.411,0,0,1,2.455-.137,21.982,21.982,0,0,1,2.4.131C1059.345,281.784,1048.409,274.033,1035.769,274.033Z" transform="translate(-923.375 -274.033)" fill="#223846"/>
    <path id="Trazado_14" data-name="Trazado 14" d="M1441.221,562.808a28.047,28.047,0,0,0-9.779.4c-7.7,1.9-13.148,6.435-17.653,12.541a51.2,51.2,0,0,0-2.984,4.5l3.187,22.9-8.18-5.252s-.391.9-.63,1.353a29.707,29.707,0,0,1-10.65,10.58,24.312,24.312,0,0,1-6.236,2.44q23.947.015,47.9.035c.5,0,1-.017,1.492-.043.376.018.754.032,1.134.032,12.826,0,23.224-11.107,23.224-24.808A24.912,24.912,0,0,0,1441.221,562.808Zm-7.181,38.034c-3.33,0-4.59,0-7.844,0-1.531,0-2.748-.416-2.769-2.228s1.212-2.32,2.715-2.327c6.58-.03,1.261-.023,7.842-.017,1.629,0,2.9.579,2.9,2.43S1435.528,600.842,1434.04,600.842Zm-7.844-9.265c-1.531,0-2.748-.413-2.769-2.226s1.212-2.319,2.715-2.327c5.827-.027,11.652-.023,17.479-.019h2.262c1.629,0,2.9.579,2.9,2.43s-1.354,2.14-2.842,2.14h-9.984m9.984-9.379h-1.484q-4.251,0-8.5,0-4.878,0-9.758,0c-1.531,0-2.748-.414-2.769-2.227s1.212-2.322,2.715-2.328c6.228-.03,12.29-.024,18.5-.018h1.239c1.629,0,2.9.579,2.9,2.43S1447.427,582.2,1445.938,582.2Z" transform="translate(-1299.932 -543.852)" fill="#ee6057"/>
  </g>
</svg>
