<svg xmlns="http://www.w3.org/2000/svg" xmlns:xlink="http://www.w3.org/1999/xlink" width="616.283" height="675.654" viewBox="0 0 616.283 675.654"><defs><linearGradient id="a" x1="0.5" y1="-3.448" x2="0.5" y2="-2.448" gradientUnits="objectBoundingBox"><stop offset="0" stop-color="gray" stop-opacity="0.251"/><stop offset="0.54" stop-color="gray" stop-opacity="0.122"/><stop offset="1" stop-color="gray" stop-opacity="0.102"/></linearGradient><linearGradient id="b" x1="0.5" y1="-2.463" x2="0.5" y2="-1.463" xlink:href="#a"/><linearGradient id="c" x1="0.5" y1="-0.955" x2="0.5" y2="0.045" xlink:href="#a"/><linearGradient id="d" y1="-15.951" x2="1" y2="-15.951" gradientUnits="objectBoundingBox"><stop offset="0" stop-color="#dadada"/><stop offset="1" stop-color="#fff"/></linearGradient><linearGradient id="e" x1="0" y1="-21.778" x2="1" y2="-21.778" xlink:href="#d"/><linearGradient id="f" x1="0.5" y1="-10.139" x2="0.5" y2="-9.139" xlink:href="#a"/></defs><g transform="translate(-609 -236.113)"><ellipse cx="83.5" cy="8.5" rx="83.5" ry="8.5" transform="translate(609 860)" fill="#d4d4d4"/><path d="M-19820.449,13951.372l343.006-152.259,8.727,675.654-355.758-42.715Z" transform="translate(20694 -13563)" fill="#3f3d56"/><g transform="translate(629.855 321.922)"><g transform="translate(332.192 36.427)"><path d="M2255.081,567.568c2.059-.849,234.169-98.88,234.169-98.88v496.4l-234.169-26.209Z" transform="translate(-2255.081 -468.688)" fill="#dde3e9"/><path d="M2377.088,610.951c1.081-.446,122.875-47.61,122.875-47.61v15.838L2377.088,622.1Z" transform="translate(-2300.039 -503.566)" fill="#dde3e9"/><path d="M2284.245,823.189c1.081-.445,190.01-38.218,190.01-38.218V800.81l-190.01,33.528Z" transform="translate(-2265.827 -585.233)" fill="#fff"/><path d="M2284.245,874.791c1.081-.446,190.01-29.974,190.01-29.974v15.839l-190.01,25.284Z" transform="translate(-2265.827 -607.285)" fill="#fff"/><path d="M2284.245,925.775c1.081-.445,190.01-24.361,190.01-24.361v15.839l-190.01,19.671Z" transform="translate(-2265.827 -628.14)" fill="#fff"/><path d="M2284.245,980.3c1.081-.445,190.01-17,190.01-17v15.839l-190.01,12.306Z" transform="translate(-2265.827 -650.947)" fill="#fff"/><path d="M2284.245,1041.922c1.081-.446,102.044-3.854,102.044-3.854v11.953l-102.044,3.05Z" transform="translate(-2265.827 -678.495)" fill="#dde3e9"/><path d="M2377.088,666.328c1.081-.446,86.825-25.2,86.825-25.2v13.934l-86.825,22.412Z" transform="translate(-2300.039 -532.23)" fill="#dde3e9"/><path d="M2284.245,642.935c.426-.176,48.439-20.454,48.439-20.454v94.628l-48.439,11.119Z" transform="translate(-2265.827 -525.358)" fill="#afb9c5"/></g><g transform="translate(215.807 0)"><path d="M2070.787,524.8c2.37-.978,269.488-113.794,269.488-113.794V982.281l-269.488-30.163Z" transform="translate(-2070.787 -411.007)" fill="#f2f2f2"/><path d="M2211.2,574.726c1.243-.513,141.407-54.791,141.407-54.791v18.228L2211.2,587.557Z" transform="translate(-2122.526 -451.145)" fill="#dde3e9"/><path d="M2104.351,818.975c1.243-.513,218.667-43.983,218.667-43.983V793.22l-218.667,38.586Z" transform="translate(-2083.155 -545.129)" fill="#dde3e9"/><path d="M2104.351,878.36c1.243-.513,218.667-34.495,218.667-34.495v18.227l-218.667,29.1Z" transform="translate(-2083.155 -570.508)" fill="#dde3e9"/><path d="M2104.351,937.033c1.243-.513,218.667-28.035,218.667-28.035v18.228l-218.667,22.638Z" transform="translate(-2083.155 -594.508)" fill="#dde3e9"/><path d="M2104.351,999.784c1.243-.513,218.667-19.56,218.667-19.56v18.228l-218.667,14.162Z" transform="translate(-2083.155 -620.754)" fill="#dde3e9"/><path d="M2104.351,1070.7c1.243-.513,117.434-4.435,117.434-4.435v13.757l-117.434,3.509Z" transform="translate(-2083.155 -652.458)" fill="#dde3e9"/><path d="M2211.2,638.455c1.243-.513,99.92-29,99.92-29v16.036l-99.92,25.793Z" transform="translate(-2122.526 -484.133)" fill="#dde3e9"/><path d="M2104.351,611.534c.49-.2,55.744-23.539,55.744-23.539V696.9l-55.744,12.8Z" transform="translate(-2083.155 -476.224)" fill="#afb9c5"/></g><g transform="translate(0 392.991)"><path d="M1774.945,1033.3l24.125,83.134,11.348,62.418h11.389L1810.438,1033.3Z" transform="translate(-1745.967 -1033.304)" fill="#e5ad8f"/><path d="M1748.179,1033.3c1.683,43.188,1.019,66.743.642,70.667s-2.515,30.2-17.091,76.2h11.846c19.3-44.129,26.041-70.408,28.255-76.2s8.752-29.35,18.3-70.667Z" transform="translate(-1730.043 -1033.304)" fill="#bf9177"/><path d="M1774.125,1033.3q9.413,42.91,32.561,136.99h16.658c1.23-64.376-4-106.746-13.067-136.99Z" transform="translate(-1745.664 -1033.304)" fill="#456b80"/><path d="M1748.39,1033.3c1.649,43.188-2.624,85.735-15.859,137.662H1750.3c19.338-43.47,33.2-85.808,42.67-137.662Z" transform="translate(-1730.338 -1033.304)" fill="#659eba"/><g transform="translate(0 143.576)"><path d="M1729.058,1272.51l.654-10.537q5.74,1.679,14.38-1.317,9.289,6.58,23.387,8.986h0a1.315,1.315,0,0,1,1.046,1.658l-.9,3.187h-37.256Z" transform="translate(-1729.058 -1260.655)" fill="#191847"/></g><g transform="translate(61.909 143.576)"><path d="M1827.09,1272.51l.654-10.537q5.741,1.679,14.38-1.317,9.289,6.58,23.388,8.986h0a1.315,1.315,0,0,1,1.045,1.658l-.9,3.187H1828.4Z" transform="translate(-1827.09 -1260.655)" fill="#191847"/></g></g><path d="M1893.644,938.474s6.574-6.852,6.942-4.458a59.007,59.007,0,0,1-2.688,5.387s12.818-6.151,12.671-3.459-2.264,11.24-6.384,12.613-11.92.953-13.6,1.816a5.54,5.54,0,0,1-3.326.527l-3.034-6.112A33.977,33.977,0,0,0,1893.644,938.474Z" transform="translate(-1786.235 -603.54)" fill="#e5ad8f"/><path d="M1763.243,932.881s5.382-10.343,16.236-6.455,29.931,17.309,44.6,16.2,18.558-4.01,18.558-4.01l2.879,9.946s-34.492,15.14-52.814,8.485S1759.872,944.706,1763.243,932.881Z" transform="translate(-1741.474 -600.608)" fill="#b6bbbf"/><g transform="translate(41.538 273.571)"><path d="M1799.128,869.746l-4.295,16.247,12.168,1.7.184-15.705s1.765,1.495,8.269,2.241c6.541.751,5.159-17.359,2.291-25.276-.772-2.131-1.651-3.523-2.513-3.611C1812.025,844.071,1790.2,838.8,1799.128,869.746Z" transform="translate(-1794.833 -844.203)" fill="#e5ad8f"/><path d="M1831.806,863.31c.21,1.029-1.065,2.6,4.038,6.411a3.7,3.7,0,0,1-4.865,1.782C1827.392,870.3,1831.806,863.31,1831.806,863.31Z" transform="translate(-1807.635 -851.244)" fill="#e5ad8f"/></g><path d="M1777.168,904.625l11.959,1.616a9.758,9.758,0,0,1,8.4,8.615l8.1,74.4s-3.881,12.386-38.3,10.458c-13.016-.513-12.111-1.65-12.111-1.65s-.1-35.369,1.251-55.99S1768.984,904.227,1777.168,904.625Z" transform="translate(-1738.689 -592.895)" fill="#dde3e9"/><path d="M1820.23,1027.948a83.822,83.822,0,0,1-12.74,2.7c-5.9.641-12.644.769-12.644.769l.718-40.843,21.948,19.142Z" transform="translate(-1753.3 -624.57)" fill="#c7cdd1"/><path d="M2151.889,834.705l-290.377,48.21v103.3l290.377-4.73Z" transform="translate(-1777.865 -567.133)" fill="url(#a)"/><path d="M1866.8,885.038l280.7-46.783V976.374l-280.7,8.911Z" transform="translate(-1779.814 -568.441)" fill="#e96057"/><path d="M2198.854,676.514l-201.523,57.367v59.59l201.523-43.215Z" transform="translate(-1827.912 -508.842)" fill="url(#b)"/><path d="M2195.965,685.509,2004.381,740.24v51.574l191.583-42.923Z" transform="translate(-1830.51 -512.156)" fill="#fff"/><path d="M2043.462,792.4c0,8.279-4.01,15.971-8.911,17.171s-8.74-4.421-8.74-12.561,3.89-15.788,8.74-17.127S2043.462,784.126,2043.462,792.4Z" transform="translate(-1838.407 -546.861)" fill="none" stroke="#dbdbdb" stroke-miterlimit="10" stroke-width="2"/><path d="M2201.474,735.5l-121.693,32.012v-6.833l121.693-32.915Z" transform="translate(-1858.294 -527.727)" fill="#dbdbdb"/><path d="M2201.474,760.194l-121.693,29.979V783.34l121.693-30.876Z" transform="translate(-1858.294 -536.828)" fill="#dbdbdb"/><path d="M2198.854,536.231l-201.523,75.2v59.59l201.523-61.051Z" transform="translate(-1827.912 -457.15)" fill="url(#c)"/><path d="M2195.965,545.226l-191.583,72.568v50.125l191.583-59.311Z" transform="translate(-1830.51 -460.464)" fill="#fff"/><path d="M2043.462,680.367c0,8.279-4.01,15.971-8.911,17.171s-8.74-4.421-8.74-12.561,3.89-15.788,8.74-17.127S2043.462,672.088,2043.462,680.367Z" transform="translate(-1838.407 -505.576)" fill="none" stroke="#dbdbdb" stroke-miterlimit="10" stroke-width="2"/><path d="M2202.263,595.217l-120.342,42.208v-6.833l120.342-43.111Z" transform="translate(-1859.082 -476.035)" fill="#dbdbdb"/><path d="M2202.263,619.911l-120.342,40.175v-6.833l120.342-41.072Z" transform="translate(-1859.082 -485.136)" fill="#dbdbdb"/><path d="M1937.123,968.472c0-15.693-7.054-27.452-15.592-26.284-8.368,1.15-15.03,14.323-15.03,29.448s6.662,26.921,15.03,26.341C1930.1,997.383,1937.123,984.171,1937.123,968.472Z" transform="translate(-1794.443 -606.709)" fill="#fff"/><path d="M2156.9,933.3l-167.857,18.611V941.481L2156.9,920.855Z" transform="translate(-1824.858 -598.878)" fill="url(#d)"/><path d="M2156.9,975.626l-167.857,12.62V977.82L2156.9,963.185Z" transform="translate(-1824.858 -614.476)" fill="url(#e)"/><path d="M2193.87,1114.775l-198.309-2.33v60.423l200.538,18.548Z" transform="translate(-1827.26 -669.475)" fill="url(#f)"/><path d="M2195.965,1120.754l-191.583-2.229V1172l191.583,15.592Z" transform="translate(-1830.51 -671.716)" fill="#fff"/><path d="M2047,1156.219c0,8.26-4.01,14.677-8.911,14.335s-8.734-7.161-8.734-15.27,3.89-14.525,8.74-14.342S2047,1147.959,2047,1156.219Z" transform="translate(-1839.711 -679.975)" fill="none" stroke="#dbdbdb" stroke-miterlimit="10" stroke-width="2"/><path d="M2203.785,1160.556l-117.733-5.639v-6.972l117.733,4.755Z" transform="translate(-1860.604 -682.556)" fill="#dbdbdb"/><path d="M2203.785,1184.073l-117.733-7.651v-6.972l117.733,6.767Z" transform="translate(-1860.604 -690.481)" fill="#dbdbdb"/><path d="M1915.421,984.9l2.763-3.568,4.691,3.336,9.544-11.958,4.135,2.373-12.879,16.206Z" transform="translate(-1797.73 -617.984)" fill="#e96057"/><path d="M2030.946,691.95l1.525-1.97,2.413,1.847,5.043-6.318,2.185,1.254-6.805,8.563Z" transform="translate(-1840.299 -512.156)" fill="#e96057"/><path d="M1861.385,1054.124s10.041,2.632,11.922,4.689-5.629,1.546-5.629,1.546,6.308,5.059,9.479,7.058-6.171,4.651-13.816.872-10.1-13.247-10.1-13.247l2.245-4.326Z" transform="translate(-1774.817 -646.729)" fill="#e5ad8f"/><path d="M1774.123,915.526s14.906-2.592,19.442,11.665,5.711,44.5,18.409,58.759,18.747,15.986,18.747,15.986l-7.993,10.8s-42.772-23.658-50.334-47.8S1759.272,921.359,1774.123,915.526Z" transform="translate(-1742.226 -596.846)" fill="#dde3e9"/><path d="M1797.021,867.554s-7.447-6.656-7.869-14.581,2.756-15.32,10.738-14.68,13.725.943,14.8,6.343c-1.819.578-4.96,3.054-6.944,3.88s-3.8,5.035-3.8,5.035-3.307-4.746-6.117-.825c-2.233,4.7,2.976,7.182,2.976,7.182Z" transform="translate(-1751.188 -568.441)" fill="#191847"/><ellipse cx="8.994" cy="7.736" rx="8.994" ry="7.736" transform="translate(34.098 261.205)" fill="#191847"/></g></g></svg>